<svg width="54" height="54" viewBox="0 0 54 54" fill="none" xmlns="http://www.w3.org/2000/svg">
<path d="M36.4131 32.6799C36.1652 32.43 35.8703 32.2316 35.5453 32.0962C35.2204 31.9609 34.8718 31.8911 34.5198 31.8911C34.1678 31.8911 33.8192 31.9609 33.4943 32.0962C33.1693 32.2316 32.8744 32.43 32.6265 32.6799C32.1298 33.1796 31.851 33.8554 31.851 34.5599C31.851 35.2644 32.1298 35.9403 32.6265 36.4399L49.1065 52.9199C49.3544 53.1699 49.6493 53.3683 49.9743 53.5037C50.2992 53.639 50.6478 53.7087 50.9998 53.7087C51.3518 53.7087 51.7004 53.639 52.0253 53.5037C52.3503 53.3683 52.6452 53.1699 52.8931 52.9199C53.3898 52.4203 53.6686 51.7444 53.6686 51.0399C53.6686 50.3354 53.3898 49.6596 52.8931 49.1599L36.4131 32.6799ZM39.6931 26.0399C41.8141 26.0381 43.8476 25.194 45.3465 23.6933L52.8931 16.1466C53.3898 15.647 53.6686 14.9711 53.6686 14.2666C53.6686 13.5621 53.3898 12.8862 52.8931 12.3866C52.6452 12.1367 52.3503 11.9383 52.0253 11.8029C51.7004 11.6675 51.3518 11.5978 50.9998 11.5978C50.6478 11.5978 50.2992 11.6675 49.9743 11.8029C49.6493 11.9383 49.3544 12.1367 49.1065 12.3866L41.5598 19.9333C41.0602 20.4299 40.3843 20.7087 39.6798 20.7087C38.9753 20.7087 38.2994 20.4299 37.7998 19.9333L47.2398 10.4933C47.7365 9.99364 48.0152 9.31777 48.0152 8.61328C48.0152 7.90878 47.7365 7.23291 47.2398 6.73328C46.9919 6.48333 46.697 6.28495 46.372 6.14957C46.047 6.01418 45.6985 5.94448 45.3465 5.94448C44.9944 5.94448 44.6459 6.01418 44.3209 6.14957C43.996 6.28495 43.701 6.48333 43.4531 6.73328L34.0398 16.1466C33.5431 15.647 33.2643 14.9711 33.2643 14.2666C33.2643 13.5621 33.5431 12.8862 34.0398 12.3866L41.5598 4.83994C41.8389 4.60088 42.0657 4.3067 42.2257 3.97586C42.3858 3.64502 42.4757 3.28467 42.4899 2.91742C42.5041 2.55017 42.4422 2.18395 42.3082 1.84175C42.1741 1.49955 41.9707 1.18875 41.7109 0.928876C41.451 0.668996 41.1402 0.465642 40.798 0.331577C40.4558 0.197511 40.0896 0.135629 39.7223 0.149814C39.3551 0.164 38.9947 0.253946 38.6639 0.414008C38.333 0.574071 38.0388 0.800792 37.7998 1.07994L30.2531 8.62661C28.755 10.1266 27.9135 12.1599 27.9135 14.2799C27.9135 16.4 28.755 18.4333 30.2531 19.9333V19.9333L26.9998 23.2399L22.8398 19.1333C24.0205 17.0025 24.4669 14.5423 24.1103 12.1326C23.7536 9.72278 22.6137 7.4974 20.8665 5.79994C17.0265 1.95994 7.07979 -2.33339 2.38646 2.43994C-2.30688 7.21328 1.93312 17.0533 5.66646 20.9199C7.75134 23.0123 10.5544 24.2327 13.5065 24.3333H13.8798C15.6828 24.3076 17.4478 23.8112 18.9998 22.8933L23.1865 26.9999L1.10646 49.0799C0.85957 49.3286 0.664076 49.6234 0.531132 49.9476C0.398189 50.2718 0.330401 50.619 0.331639 50.9694C0.332877 51.3198 0.403117 51.6665 0.538348 51.9897C0.673579 52.313 0.871153 52.6064 1.11979 52.8533C1.36843 53.1002 1.66325 53.2957 1.98744 53.4286C2.31163 53.5615 2.65883 53.6293 3.00922 53.6281C3.3596 53.6269 3.70632 53.5566 4.02956 53.4214C4.3528 53.2862 4.64624 53.0886 4.89312 52.8399L28.8931 28.8399L34.0131 23.7199C34.7606 24.4614 35.6472 25.048 36.6219 25.4461C37.5966 25.8442 38.6403 26.046 39.6931 26.0399V26.0399ZM17.4798 17.5066C16.9802 18.0032 16.384 18.392 15.7281 18.6489C15.0721 18.9058 14.3704 19.0253 13.6665 18.9999C12.1075 18.9328 10.6354 18.2637 9.55979 17.1333C6.67979 14.2533 4.65312 7.71994 6.17312 6.19994C6.67799 5.8191 7.30177 5.63007 7.93312 5.66661C11.3366 5.93788 14.558 7.31448 17.1065 9.58661C18.1952 10.5939 18.8445 11.9886 18.9143 13.4702C18.9841 14.9518 18.4689 16.4014 17.4798 17.5066V17.5066Z" fill="#858585"/>
</svg>
