<svg xmlns="http://www.w3.org/2000/svg" width="18" height="18" viewBox="0 0 18 18" fill="none">
  <mask id="mask0_1807_8132" style="mask-type:alpha" maskUnits="userSpaceOnUse" x="0" y="0" width="18" height="18">
    <rect width="18" height="18" fill="#D9D9D9"/>
  </mask>
  <g mask="url(#mask0_1807_8132)">
    <path d="M8.44043 9.56197V11.9995C8.44043 12.1591 8.49427 12.2928 8.60196 12.4004C8.70965 12.5081 8.8433 12.562 9.00291 12.562C9.16252 12.562 9.29617 12.5081 9.40386 12.4004C9.51155 12.2928 9.56539 12.1591 9.56539 11.9995V9.56197H12.0029C12.1625 9.56197 12.2962 9.50813 12.4039 9.40044C12.5115 9.29276 12.5654 9.15911 12.5654 8.99949C12.5654 8.83988 12.5115 8.70623 12.4039 8.59854C12.2962 8.49086 12.1625 8.43701 12.0029 8.43701H9.56539V5.99949C9.56539 5.83988 9.51155 5.70623 9.40386 5.59854C9.29617 5.49086 9.16252 5.43701 9.00291 5.43701C8.8433 5.43701 8.70965 5.49086 8.60196 5.59854C8.49427 5.70623 8.44043 5.83988 8.44043 5.99949V8.43701H6.00291C5.8433 8.43701 5.70965 8.49086 5.60196 8.59854C5.49427 8.70623 5.44043 8.83988 5.44043 8.99949C5.44043 9.15911 5.49427 9.29276 5.60196 9.40044C5.70965 9.50813 5.8433 9.56197 6.00291 9.56197H8.44043ZM3.9837 15.3745C3.60485 15.3745 3.28418 15.2432 3.02168 14.9807C2.75918 14.7182 2.62793 14.3975 2.62793 14.0187V3.98029C2.62793 3.60144 2.75918 3.28076 3.02168 3.01826C3.28418 2.75576 3.60485 2.62451 3.9837 2.62451H14.0221C14.401 2.62451 14.7216 2.75576 14.9841 3.01826C15.2466 3.28076 15.3779 3.60144 15.3779 3.98029V14.0187C15.3779 14.3975 15.2466 14.7182 14.9841 14.9807C14.7216 15.2432 14.401 15.3745 14.0221 15.3745H3.9837ZM3.9837 14.2495H14.0221C14.0798 14.2495 14.1327 14.2255 14.1808 14.1774C14.2289 14.1293 14.2529 14.0764 14.2529 14.0187V3.98029C14.2529 3.92259 14.2289 3.86969 14.1808 3.82161C14.1327 3.77353 14.0798 3.74949 14.0221 3.74949H3.9837C3.926 3.74949 3.87311 3.77353 3.82502 3.82161C3.77695 3.86969 3.75291 3.92259 3.75291 3.98029V14.0187C3.75291 14.0764 3.77695 14.1293 3.82502 14.1774C3.87311 14.2255 3.926 14.2495 3.9837 14.2495Z" fill="#4B4B4B"/>
  </g>
</svg>