<svg xmlns="http://www.w3.org/2000/svg" width="18" height="18" viewBox="0 0 18 18" fill="none">
  <mask id="mask0_1952_6598" style="mask-type:alpha" maskUnits="userSpaceOnUse" x="0" y="0" width="18" height="18">
    <rect width="18" height="18" fill="#D9D9D9"/>
  </mask>
  <g mask="url(#mask0_1952_6598)">
    <path d="M7.94998 10.3096L6.20766 8.56731C6.10382 8.46346 5.97329 8.41033 5.81608 8.40793C5.65888 8.40552 5.52596 8.45864 5.41731 8.56731C5.30864 8.67596 5.25431 8.80768 5.25431 8.96248C5.25431 9.11728 5.30864 9.24901 5.41731 9.35766L7.47548 11.4158C7.61105 11.5514 7.76922 11.6192 7.94998 11.6192C8.13074 11.6192 8.28891 11.5514 8.42449 11.4158L12.5971 7.24324C12.7009 7.1394 12.7541 7.00888 12.7565 6.85166C12.7589 6.69445 12.7057 6.56152 12.5971 6.45287C12.4884 6.34422 12.3567 6.28989 12.2019 6.28989C12.0471 6.28989 11.9154 6.34422 11.8067 6.45287L7.94998 10.3096ZM3.98078 15.375C3.60193 15.375 3.28125 15.2437 3.01875 14.9812C2.75625 14.7187 2.625 14.398 2.625 14.0192V3.98078C2.625 3.60193 2.75625 3.28125 3.01875 3.01875C3.28125 2.75625 3.60193 2.625 3.98078 2.625H14.0192C14.398 2.625 14.7187 2.75625 14.9812 3.01875C15.2437 3.28125 15.375 3.60193 15.375 3.98078V14.0192C15.375 14.398 15.2437 14.7187 14.9812 14.9812C14.7187 15.2437 14.398 15.375 14.0192 15.375H3.98078ZM3.98078 14.25H14.0192C14.0769 14.25 14.1298 14.2259 14.1779 14.1779C14.2259 14.1298 14.25 14.0769 14.25 14.0192V3.98078C14.25 3.92308 14.2259 3.87018 14.1779 3.82209C14.1298 3.77402 14.0769 3.74998 14.0192 3.74998H3.98078C3.92308 3.74998 3.87018 3.77402 3.82209 3.82209C3.77402 3.87018 3.74998 3.92308 3.74998 3.98078V14.0192C3.74998 14.0769 3.77402 14.1298 3.82209 14.1779C3.87018 14.2259 3.92308 14.25 3.98078 14.25Z" fill="#8E8E8E"/>
    <path d="M7.94998 10.3096L6.20766 8.56731C6.10382 8.46346 5.97329 8.41033 5.81608 8.40793C5.65888 8.40552 5.52596 8.45864 5.41731 8.56731C5.30864 8.67596 5.25431 8.80768 5.25431 8.96248C5.25431 9.11728 5.30864 9.24901 5.41731 9.35766L7.47548 11.4158C7.61105 11.5514 7.76922 11.6192 7.94998 11.6192C8.13074 11.6192 8.28891 11.5514 8.42449 11.4158L12.5971 7.24324C12.7009 7.1394 12.7541 7.00888 12.7565 6.85166C12.7589 6.69445 12.7057 6.56152 12.5971 6.45287C12.4884 6.34422 12.3567 6.28989 12.2019 6.28989C12.0471 6.28989 11.9154 6.34422 11.8067 6.45287L7.94998 10.3096ZM3.98078 15.375C3.60193 15.375 3.28125 15.2437 3.01875 14.9812C2.75625 14.7187 2.625 14.398 2.625 14.0192V3.98078C2.625 3.60193 2.75625 3.28125 3.01875 3.01875C3.28125 2.75625 3.60193 2.625 3.98078 2.625H14.0192C14.398 2.625 14.7187 2.75625 14.9812 3.01875C15.2437 3.28125 15.375 3.60193 15.375 3.98078V14.0192C15.375 14.398 15.2437 14.7187 14.9812 14.9812C14.7187 15.2437 14.398 15.375 14.0192 15.375H3.98078ZM3.98078 14.25H14.0192C14.0769 14.25 14.1298 14.2259 14.1779 14.1779C14.2259 14.1298 14.25 14.0769 14.25 14.0192V3.98078C14.25 3.92308 14.2259 3.87018 14.1779 3.82209C14.1298 3.77402 14.0769 3.74998 14.0192 3.74998H3.98078C3.92308 3.74998 3.87018 3.77402 3.82209 3.82209C3.77402 3.87018 3.74998 3.92308 3.74998 3.98078V14.0192C3.74998 14.0769 3.77402 14.1298 3.82209 14.1779C3.87018 14.2259 3.92308 14.25 3.98078 14.25Z" fill="black" fill-opacity="0.2"/>
  </g>
</svg>