<svg width="16" height="22" viewBox="0 0 16 22" fill="none" xmlns="http://www.w3.org/2000/svg">
<path d="M2 0H8H14C15.1046 0 16 0.89543 16 2V20C16 21.1046 15.1046 22 14 22H13.6465C13.1054 22 12.5874 21.7808 12.2107 21.3923L9.4358 18.5307C8.65008 17.7204 7.34992 17.7204 6.5642 18.5307L3.78929 21.3923C3.41261 21.7808 2.89459 22 2.35349 22H2C0.89543 22 0 21.1046 0 20V2C0 0.895431 0.895431 0 2 0Z" fill="#F7941E"/>
<path d="M7.52571 5.80275C7.67878 5.34931 8.32011 5.34931 8.47318 5.80274L9.16758 7.85974C9.23619 8.06299 9.4268 8.19982 9.64131 8.19982H11.8466C12.3355 8.19982 12.5338 8.82935 12.1331 9.10957L10.3823 10.3339C10.2003 10.4612 10.1241 10.6932 10.1951 10.9036L10.8715 12.9073C11.0259 13.3647 10.5068 13.7536 10.1113 13.477L8.28598 12.2006C8.1139 12.0803 7.88498 12.0803 7.7129 12.2006L5.88762 13.477C5.49207 13.7536 4.97296 13.3647 5.12734 12.9073L5.80378 10.9036C5.8748 10.6932 5.79855 10.4612 5.61658 10.3339L3.86578 9.10957C3.46507 8.82935 3.66334 8.19982 4.15232 8.19982H6.35757C6.57209 8.19982 6.7627 8.06299 6.83131 7.85974L7.52571 5.80275Z" fill="white"/>
</svg>
