<svg xmlns="http://www.w3.org/2000/svg" width="16" height="16" viewBox="0 0 16 16" fill="none">
  <path d="M8.93998 7.99988L13.14 3.80655C13.2655 3.68101 13.336 3.51075 13.336 3.33321C13.336 3.15568 13.2655 2.98542 13.14 2.85988C13.0144 2.73434 12.8442 2.66382 12.6666 2.66382C12.4891 2.66382 12.3188 2.73434 12.1933 2.85988L7.99998 7.05988L3.80665 2.85988C3.68111 2.73434 3.51085 2.66382 3.33331 2.66382C3.15578 2.66382 2.98552 2.73434 2.85998 2.85988C2.73444 2.98542 2.66392 3.15568 2.66392 3.33321C2.66392 3.51075 2.73444 3.68101 2.85998 3.80655L7.05998 7.99988L2.85998 12.1932C2.79749 12.2552 2.7479 12.3289 2.71405 12.4102C2.68021 12.4914 2.66278 12.5785 2.66278 12.6665C2.66278 12.7546 2.68021 12.8417 2.71405 12.9229C2.7479 13.0042 2.79749 13.0779 2.85998 13.1399C2.92195 13.2024 2.99569 13.252 3.07693 13.2858C3.15817 13.3197 3.24531 13.3371 3.33331 13.3371C3.42132 13.3371 3.50846 13.3197 3.5897 13.2858C3.67094 13.252 3.74467 13.2024 3.80665 13.1399L7.99998 8.93988L12.1933 13.1399C12.2553 13.2024 12.329 13.252 12.4103 13.2858C12.4915 13.3197 12.5786 13.3371 12.6666 13.3371C12.7547 13.3371 12.8418 13.3197 12.923 13.2858C13.0043 13.252 13.078 13.2024 13.14 13.1399C13.2025 13.0779 13.2521 13.0042 13.2859 12.9229C13.3198 12.8417 13.3372 12.7546 13.3372 12.6665C13.3372 12.5785 13.3198 12.4914 13.2859 12.4102C13.2521 12.3289 13.2025 12.2552 13.14 12.1932L8.93998 7.99988Z" fill="#727272"/>
</svg>