<svg xmlns="http://www.w3.org/2000/svg" width="34" height="34" viewBox="0 0 34 34" fill="none">
<mask id="mask0_1186_2140" style="mask-type:alpha" maskUnits="userSpaceOnUse" x="0" y="0" width="34" height="34">
<rect width="34" height="34" fill="#D9D9D9"/>
</mask>
<g mask="url(#mask0_1186_2140)">
<path d="M17 24.7917C18.7708 24.7917 20.2761 24.1719 21.5156 22.9323C22.7552 21.6927 23.375 20.1875 23.375 18.4167C23.375 16.6458 22.7552 15.1406 21.5156 13.901C20.2761 12.6615 18.7708 12.0417 17 12.0417C15.2292 12.0417 13.724 12.6615 12.4844 13.901C11.2448 15.1406 10.625 16.6458 10.625 18.4167C10.625 20.1875 11.2448 21.6927 12.4844 22.9323C13.724 24.1719 15.2292 24.7917 17 24.7917ZM17 21.9583C16.0083 21.9583 15.1702 21.616 14.4854 20.9312C13.8007 20.2465 13.4583 19.4083 13.4583 18.4167C13.4583 17.425 13.8007 16.5868 14.4854 15.9021C15.1702 15.2174 16.0083 14.875 17 14.875C17.9917 14.875 18.8299 15.2174 19.5146 15.9021C20.1993 16.5868 20.5417 17.425 20.5417 18.4167C20.5417 19.4083 20.1993 20.2465 19.5146 20.9312C18.8299 21.616 17.9917 21.9583 17 21.9583ZM5.66668 29.75C4.88751 29.75 4.2205 29.4726 3.66564 28.9177C3.11077 28.3628 2.83334 27.6958 2.83334 26.9167V9.91667C2.83334 9.1375 3.11077 8.47049 3.66564 7.91563C4.2205 7.36076 4.88751 7.08333 5.66668 7.08333H10.1292L11.9 5.17083C12.1597 4.8875 12.4726 4.66319 12.8386 4.49792C13.2045 4.33264 13.5882 4.25 13.9896 4.25H20.0104C20.4118 4.25 20.7955 4.33264 21.1615 4.49792C21.5274 4.66319 21.8403 4.8875 22.1 5.17083L23.8708 7.08333H28.3333C29.1125 7.08333 29.7795 7.36076 30.3344 7.91563C30.8892 8.47049 31.1667 9.1375 31.1667 9.91667V26.9167C31.1667 27.6958 30.8892 28.3628 30.3344 28.9177C29.7795 29.4726 29.1125 29.75 28.3333 29.75H5.66668Z" fill="#8E8E8E"/>
</g>
</svg>