<svg xmlns="http://www.w3.org/2000/svg" width="24" height="24" viewBox="0 0 24 24" fill="none">
<mask id="mask0_2229_16" style="mask-type:alpha" maskUnits="userSpaceOnUse" x="0" y="0" width="24" height="24">
<rect width="24" height="24" fill="#D9D9D9"/>
</mask>
<g mask="url(#mask0_2229_16)">
<path d="M19 16.125L14 11.125V7C14 6.43333 14.1208 5.85417 14.3625 5.2625C14.6042 4.67083 14.9167 4.13333 15.3 3.65C15.6833 3.16667 16.1083 2.77083 16.575 2.4625C17.0417 2.15417 17.5 2 17.95 2C18.25 2 18.5 2.11667 18.7 2.35C18.9 2.58333 19 2.85833 19 3.175V16.125ZM21.2 22.575C21 22.775 20.7625 22.875 20.4875 22.875C20.2125 22.875 19.975 22.775 19.775 22.575L18.2 21.025H19C19 21.3083 18.9042 21.5458 18.7125 21.7375C18.5208 21.9292 18.2833 22.025 18 22.025C17.7167 22.025 17.4792 21.9292 17.2875 21.7375C17.0958 21.5458 17 21.3083 17 21.025V19.825L1.40001 4.225C1.20001 4.025 1.10001 3.78333 1.10001 3.5C1.10001 3.21667 1.20001 2.975 1.40001 2.775C1.60001 2.575 1.83751 2.475 2.11251 2.475C2.38751 2.475 2.62501 2.575 2.82501 2.775L21.2 21.175C21.4 21.375 21.5 21.6083 21.5 21.875C21.5 22.1417 21.4 22.375 21.2 22.575ZM12 9.125L10 7.125V3C10 2.71667 10.0958 2.47917 10.2875 2.2875C10.4792 2.09583 10.7167 2 11 2C11.2833 2 11.5208 2.09583 11.7125 2.2875C11.9042 2.47917 12 2.71667 12 3V9.125ZM9.00001 6.125L7.00001 4.125V3C7.00001 2.71667 7.09584 2.47917 7.28751 2.2875C7.47917 2.09583 7.71667 2 8.00001 2C8.28334 2 8.52084 2.09583 8.71251 2.2875C8.90417 2.47917 9.00001 2.71667 9.00001 3V6.125ZM6.00001 3.125L4.87501 2C5.19167 2 5.45834 2.10833 5.67501 2.325C5.89167 2.54167 6.00001 2.80833 6.00001 3.125ZM8.00001 22C7.71667 22 7.47917 21.9042 7.28751 21.7125C7.09584 21.5208 7.00001 21.2833 7.00001 21V12.85C6.15001 12.6167 5.43751 12.15 4.86251 11.45C4.28751 10.75 4.00001 9.93333 4.00001 9V3.975L6.00001 5.975V9H7.00001V6.975L9.00001 8.975V9H9.02501L11.275 11.25C11.0083 11.6333 10.6792 11.9625 10.2875 12.2375C9.89584 12.5125 9.46667 12.7167 9.00001 12.85V21C9.00001 21.2833 8.90417 21.5208 8.71251 21.7125C8.52084 21.9042 8.28334 22 8.00001 22Z" fill="white"/>
</g>
</svg>