<svg width="160" height="160" viewBox="0 0 160 160" fill="none" xmlns="http://www.w3.org/2000/svg">
<path d="M73.334 26.667H26.6673C23.1311 26.667 19.7397 28.0717 17.2392 30.5722C14.7387 33.0727 13.334 36.4641 13.334 40.0003V133.334C13.334 136.87 14.7387 140.261 17.2392 142.762C19.7397 145.262 23.1311 146.667 26.6673 146.667H120.001C123.537 146.667 126.928 145.262 129.429 142.762C131.929 140.261 133.334 136.87 133.334 133.334V86.667" stroke="#F7941E" stroke-width="8" stroke-linecap="round" stroke-linejoin="round"/>
<path d="M123.334 16.6666C125.986 14.0144 129.583 12.5244 133.334 12.5244C137.085 12.5244 140.682 14.0144 143.334 16.6666C145.986 19.3187 147.476 22.9158 147.476 26.6665C147.476 30.4173 145.986 34.0144 143.334 36.6666L80.0007 99.9999L53.334 106.667L60.0007 79.9999L123.334 16.6666Z" stroke="#F7941E" stroke-width="8" stroke-linecap="round" stroke-linejoin="round"/>
</svg>
