<svg width="24" height="24" viewBox="0 0 24 24" fill="none" xmlns="http://www.w3.org/2000/svg">
<path d="M3.10083 16.7301H2.5708C2.26507 16.7272 1.97294 16.6035 1.75806 16.386C1.54318 16.1685 1.42303 15.8748 1.42383 15.5691V6.42709C1.42303 6.12135 1.54318 5.8277 1.75806 5.6102C1.97294 5.3927 2.26507 5.26902 2.5708 5.26611H20.2329C20.8629 5.26611 21.2449 5.80309 21.3789 6.42709C21.8789 8.77409 22.8787 13.2531 23.0967 15.5701C23.1022 15.7227 23.0765 15.8749 23.021 16.0173C22.9655 16.1596 22.8817 16.2891 22.7744 16.3979C22.6671 16.5066 22.5386 16.5922 22.397 16.6495C22.2554 16.7068 22.1034 16.7346 21.9507 16.7311H21.3008" stroke="#858585" stroke-linejoin="round"/>
<path d="M16.4604 16.73H7.4834" stroke="#858585" stroke-linejoin="round"/>
<path d="M4.63358 7.04199H4.63258C3.87871 7.04199 3.26758 7.65312 3.26758 8.40699V10.251C3.26758 11.0049 3.87871 11.616 4.63258 11.616H4.63358C5.38746 11.616 5.99859 11.0049 5.99859 10.251V8.40699C5.99859 7.65312 5.38746 7.04199 4.63358 7.04199Z" stroke="#858585" stroke-linejoin="round"/>
<path d="M9.22537 7.04199H9.22437C8.47051 7.04199 7.85938 7.65312 7.85938 8.40699V10.251C7.85938 11.0049 8.47051 11.616 9.22437 11.616H9.22537C9.97924 11.616 10.5904 11.0049 10.5904 10.251V8.40699C10.5904 7.65312 9.97924 7.04199 9.22537 7.04199Z" stroke="#858585" stroke-linejoin="round"/>
<path d="M13.8445 7.04199H13.8435C13.0897 7.04199 12.4785 7.65312 12.4785 8.40699V10.251C12.4785 11.0049 13.0897 11.616 13.8435 11.616H13.8445C14.5984 11.616 15.2095 11.0049 15.2095 10.251V8.40699C15.2095 7.65312 14.5984 7.04199 13.8445 7.04199Z" stroke="#858585" stroke-linejoin="round"/>
<path d="M22.2229 11.616H18.033C17.7253 11.6153 17.4304 11.4927 17.2129 11.2751C16.9953 11.0576 16.8729 10.7627 16.8721 10.455V8.20203C16.8729 7.89436 16.9953 7.59952 17.2129 7.38196C17.4304 7.1644 17.7253 7.04181 18.033 7.04102H21.3569" stroke="#858585" stroke-linejoin="round"/>
<path d="M5.38458 18.847C6.55378 18.847 7.50159 17.8992 7.50159 16.73C7.50159 15.5608 6.55378 14.613 5.38458 14.613C4.21539 14.613 3.26758 15.5608 3.26758 16.73C3.26758 17.8992 4.21539 18.847 5.38458 18.847Z" stroke="#858585" stroke-linejoin="round"/>
<path d="M18.7547 18.847C19.9239 18.847 20.8717 17.8992 20.8717 16.73C20.8717 15.5608 19.9239 14.613 18.7547 14.613C17.5855 14.613 16.6377 15.5608 16.6377 16.73C16.6377 17.8992 17.5855 18.847 18.7547 18.847Z" stroke="#858585" stroke-linejoin="round"/>
</svg>
