<svg width="21" height="20" viewBox="0 0 21 20" fill="none" xmlns="http://www.w3.org/2000/svg">
<path d="M8.20039 14.3L4.6004 10.7C4.50564 10.6097 4.4302 10.5011 4.37866 10.3808C4.32712 10.2604 4.30055 10.1309 4.30055 10C4.30055 9.8691 4.32712 9.73956 4.37866 9.61924C4.4302 9.49892 4.50564 9.39031 4.6004 9.3C4.69071 9.20524 4.7993 9.12981 4.91963 9.07827C5.03995 9.02673 5.1695 9.00015 5.3004 9.00015C5.4313 9.00015 5.56082 9.02673 5.68115 9.07827C5.80147 9.12981 5.91008 9.20524 6.00039 9.3L8.90039 12.2L15.8004 5.3C15.9867 5.11744 16.2375 5.01577 16.4983 5.01708C16.7591 5.0184 17.0089 5.1226 17.1934 5.30704C17.3778 5.49147 17.482 5.74124 17.4833 6.00207C17.4846 6.2629 17.383 6.51371 17.2004 6.7L9.6004 14.3C9.51009 14.3948 9.40148 14.4702 9.28116 14.5217C9.16083 14.5733 9.03129 14.5998 8.90039 14.5998C8.76949 14.5998 8.63996 14.5733 8.51963 14.5217C8.39931 14.4702 8.2907 14.3948 8.20039 14.3ZM10.9004 0C8.92257 0 6.98918 0.58649 5.34469 1.6853C3.7002 2.78412 2.41848 4.3459 1.6616 6.17317C0.904726 8.00043 0.706689 10.0111 1.09254 11.9509C1.47839 13.8907 2.4308 15.6725 3.82933 17.0711C5.22785 18.4696 7.00968 19.422 8.94949 19.8079C10.8893 20.1937 12.9 19.9957 14.7272 19.2388C16.5545 18.4819 18.1163 17.2002 19.2151 15.5557C20.3139 13.9112 20.9004 11.9778 20.9004 10C20.8927 7.35019 19.8367 4.81109 17.963 2.93738C16.0893 1.06368 13.5502 0.00765122 10.9004 0Z" fill="#F7941E"/>
</svg>
