<svg width="24" height="24" viewBox="0 0 24 24" fill="none" xmlns="http://www.w3.org/2000/svg">
<path d="M19.79 21.38H19.7324L19.6764 21.3931L19.3866 21.4607C19.2578 21.4848 19.1273 21.498 18.9963 21.5H5C4.33696 21.5 3.70107 21.2366 3.23223 20.7678C2.76339 20.2989 2.5 19.663 2.5 19V5C2.5 4.33696 2.76339 3.70107 3.23223 3.23223C3.70107 2.76339 4.33696 2.5 5 2.5H19C19.663 2.5 20.2989 2.76339 20.7678 3.23223C21.2366 3.70107 21.5 4.33696 21.5 5V18.9874C21.4914 19.1477 21.4645 19.3065 21.4198 19.4607L21.4 19.5289V19.6V19.6766C21.3902 19.7101 21.3821 19.739 21.3748 19.7647C21.3552 19.8343 21.342 19.8811 21.3185 19.9377L21.3145 19.9472L21.311 19.9568C21.3014 19.9827 21.2897 20.0078 21.276 20.0318L21.2598 20.06L21.2475 20.09C21.2097 20.182 21.1644 20.2707 21.1121 20.3553L21.0315 20.4716C20.9658 20.5628 20.8931 20.6488 20.8141 20.7288L20.7934 20.7498L20.7753 20.773L20.7283 20.8335C20.6335 20.9226 20.5336 21.0061 20.4289 21.0834C20.4029 21.1012 20.371 21.1199 20.3248 21.1452C20.316 21.15 20.306 21.1555 20.295 21.1614C20.2573 21.1818 20.2088 21.2081 20.1635 21.2348L20.0721 21.2841L19.8186 21.38H19.79ZM3.64591 14.337L3.5 14.4833V14.69V19C3.5 19.3978 3.65804 19.7794 3.93934 20.0607C4.22065 20.342 4.60218 20.5 5 20.5H17.31H18.5161L17.6638 19.6467L9.065 11.0379C9.0648 11.0377 9.06461 11.0375 9.06441 11.0373C8.92509 10.897 8.7594 10.7856 8.57687 10.7096C8.39407 10.6334 8.19802 10.5942 8 10.5942C7.80198 10.5942 7.60593 10.6334 7.42313 10.7096C7.24053 10.7856 7.07478 10.8971 6.93542 11.0375C6.93528 11.0376 6.93514 11.0378 6.935 11.0379L3.64591 14.337ZM20.5 19.0038H20.5V19V16.69V16.4833L20.3541 16.337L17.065 13.0379C17.0648 13.0377 17.0646 13.0375 17.0644 13.0372C16.925 12.897 16.7594 12.7856 16.5769 12.7096C16.3941 12.6334 16.198 12.5942 16 12.5942C15.802 12.5942 15.6059 12.6334 15.4231 12.7096C15.2407 12.7856 15.0752 12.8968 14.9359 13.037C14.9356 13.0373 14.9353 13.0376 14.935 13.0379L14.0564 13.9164L13.7029 14.27L14.0564 14.6236L19.4064 19.9736L19.7826 20.3498L20.1348 19.951C20.1836 19.8957 20.228 19.8369 20.2677 19.7749C20.3112 19.7104 20.3497 19.6427 20.3827 19.5723L20.3893 19.5582L20.395 19.5438C20.463 19.3718 20.4986 19.1888 20.5 19.0038ZM19.6483 14.2154L20.5 15.058V13.86V5C20.5 4.60218 20.342 4.22065 20.0607 3.93934C19.7794 3.65804 19.3978 3.5 19 3.5H5C4.60217 3.5 4.22064 3.65804 3.93934 3.93934C3.65804 4.22064 3.5 4.60217 3.5 5V11.86V13.058L4.35166 12.2154L6.2278 10.3593C6.70675 9.90657 7.34084 9.65428 8 9.65428C8.65873 9.65428 9.29243 9.90624 9.77128 10.3584L12.6464 13.2336L13 13.5871L13.3536 13.2336L14.2287 12.3584C14.7076 11.9062 15.3413 11.6543 16 11.6543C16.6592 11.6543 17.2933 11.9066 17.7722 12.3593L19.6483 14.2154Z" stroke="#858585"/>
</svg>
