<svg width="276" height="276" viewBox="0 0 276 276" fill="none" xmlns="http://www.w3.org/2000/svg">
<path d="M276 211.085H0V211.223H276V211.085Z" fill="#EBEBEB"/>
<path d="M47.2393 216.34H28.957V216.478H47.2393V216.34Z" fill="#EBEBEB"/>
<path d="M124.199 216.412H94.4688V216.55H124.199V216.412Z" fill="#EBEBEB"/>
<path d="M68.9776 219.188H58.3848V219.326H68.9776V219.188Z" fill="#EBEBEB"/>
<path d="M246.191 219.122H235.576V219.26H246.191V219.122Z" fill="#EBEBEB"/>
<path d="M230.66 219.122H213.939V219.26H230.66V219.122Z" fill="#EBEBEB"/>
<path d="M204.731 218.212H181.238V218.35H204.731V218.212Z" fill="#EBEBEB"/>
<path d="M130.824 186.466H24.2382C23.4032 186.464 22.6029 186.132 22.013 185.541C21.4231 184.95 21.0918 184.149 21.0918 183.314V33.4847C21.0991 32.6545 21.4336 31.8607 22.0227 31.2757C22.6118 30.6907 23.408 30.3618 24.2382 30.3604H130.824C131.66 30.3604 132.462 30.6924 133.053 31.2835C133.644 31.8746 133.976 32.6763 133.976 33.5123V183.314C133.976 184.15 133.644 184.952 133.053 185.543C132.462 186.134 131.66 186.466 130.824 186.466ZM24.2382 30.4708C23.4398 30.4722 22.6746 30.7904 22.1106 31.3555C21.5466 31.9205 21.2298 32.6863 21.2298 33.4847V183.314C21.2298 184.112 21.5466 184.878 22.1106 185.443C22.6746 186.008 23.4398 186.326 24.2382 186.328H130.824C131.623 186.326 132.389 186.008 132.953 185.444C133.518 184.879 133.836 184.113 133.838 183.314V33.4847C133.836 32.6858 133.518 31.92 132.953 31.3551C132.389 30.7902 131.623 30.4722 130.824 30.4708H24.2382Z" fill="#EBEBEB"/>
<path d="M250.227 186.466H143.636C142.801 186.464 142 186.132 141.409 185.541C140.818 184.95 140.486 184.15 140.484 183.314V33.4847C140.493 32.654 140.829 31.8602 141.419 31.2753C142.009 30.6905 142.806 30.3618 143.636 30.3604H250.227C251.057 30.3632 251.851 30.6928 252.439 31.2776C253.027 31.8625 253.361 32.6554 253.368 33.4847V183.314C253.368 184.148 253.038 184.948 252.449 185.539C251.86 186.13 251.062 186.463 250.227 186.466ZM143.636 30.4708C142.837 30.4722 142.072 30.7902 141.507 31.3551C140.942 31.92 140.624 32.6858 140.622 33.4847V183.314C140.624 184.113 140.942 184.879 141.507 185.444C142.072 186.008 142.837 186.326 143.636 186.328H250.227C251.026 186.326 251.792 186.008 252.357 185.444C252.922 184.879 253.24 184.113 253.241 183.314V33.4847C253.24 32.6858 252.922 31.92 252.357 31.3551C251.792 30.7902 251.026 30.4722 250.227 30.4708H143.636Z" fill="#EBEBEB"/>
<path d="M231.775 50.2432H167.688V126.761H231.775V50.2432Z" fill="#E6E6E6"/>
<path d="M233.374 50.2432H169.287V126.761H233.374V50.2432Z" fill="#F5F5F5"/>
<path d="M230.504 123.532V53.4668L172.163 53.4668V123.532H230.504Z" fill="white"/>
<path d="M230.498 123.532V53.4668H229.289V123.532H230.498Z" fill="#E6E6E6"/>
<path d="M232.183 106.934H170.475V111.267H232.183V106.934Z" fill="#F5F5F5"/>
<path d="M236.505 44.9053H164.557C164.44 44.9053 164.327 44.9518 164.245 45.0346C164.162 45.1174 164.115 45.2298 164.115 45.3469C164.115 45.464 164.162 45.5763 164.245 45.6591C164.327 45.7419 164.44 45.7885 164.557 45.7885H236.505C236.622 45.7885 236.734 45.7419 236.817 45.6591C236.9 45.5763 236.946 45.464 236.946 45.3469C236.946 45.2298 236.9 45.1174 236.817 45.0346C236.734 44.9518 236.622 44.9053 236.505 44.9053Z" fill="#E6E6E6"/>
<path d="M236.946 47.5547C238.166 47.5547 239.154 46.5661 239.154 45.3467C239.154 44.1272 238.166 43.1387 236.946 43.1387C235.727 43.1387 234.738 44.1272 234.738 45.3467C234.738 46.5661 235.727 47.5547 236.946 47.5547Z" fill="#E6E6E6"/>
<path d="M168.284 47.8196C168.126 47.8196 167.974 47.7568 167.862 47.645C167.75 47.5332 167.688 47.3816 167.688 47.2235V45.9428C167.689 45.7852 167.752 45.6344 167.864 45.5229C167.975 45.4114 168.126 45.3481 168.284 45.3467C168.442 45.3467 168.593 45.4095 168.705 45.5213C168.817 45.6331 168.88 45.7847 168.88 45.9428V47.2235C168.88 47.3816 168.817 47.5332 168.705 47.645C168.593 47.7568 168.442 47.8196 168.284 47.8196Z" fill="#E6E6E6"/>
<path d="M229.836 47.8196C229.678 47.8196 229.527 47.7568 229.415 47.645C229.303 47.5332 229.24 47.3816 229.24 47.2235V45.9428C229.242 45.7852 229.305 45.6344 229.416 45.5229C229.528 45.4114 229.679 45.3481 229.836 45.3467C229.994 45.3467 230.146 45.4095 230.258 45.5213C230.37 45.6331 230.433 45.7847 230.433 45.9428V47.2235C230.433 47.3816 230.37 47.5332 230.258 47.645C230.146 47.7568 229.994 47.8196 229.836 47.8196Z" fill="#E6E6E6"/>
<path opacity="0.5" d="M236.361 45.3467H170.475V77.4841H236.361V45.3467Z" fill="#E0E0E0"/>
<path d="M175.392 47.5547C176.611 47.5547 177.6 46.5661 177.6 45.3467C177.6 44.1272 176.611 43.1387 175.392 43.1387C174.172 43.1387 173.184 44.1272 173.184 45.3467C173.184 46.5661 174.172 47.5547 175.392 47.5547Z" fill="#E6E6E6"/>
<path d="M49.5198 134.981H26.1426L28.2126 107.618H47.4498L49.5198 134.981Z" fill="#EBEBEB"/>
<path d="M44.3917 134.981H40.3732L39.5176 107.618H43.227L44.3917 134.981Z" fill="#F5F5F5"/>
<path d="M39.0045 134.98H36.6641V211.085H39.0045V134.98Z" fill="#F0F0F0"/>
<path d="M38.7176 146.192H36.9512C36.0915 146.192 35.3945 146.889 35.3945 147.749V153.495C35.3945 154.355 36.0915 155.052 36.9512 155.052H38.7176C39.5773 155.052 40.2742 154.355 40.2742 153.495V147.749C40.2742 146.889 39.5773 146.192 38.7176 146.192Z" fill="#F0F0F0"/>
<path d="M38.7176 160.39H36.9512C36.0915 160.39 35.3945 161.087 35.3945 161.946V167.693C35.3945 168.552 36.0915 169.249 36.9512 169.249H38.7176C39.5773 169.249 40.2742 168.552 40.2742 167.693V161.946C40.2742 161.087 39.5773 160.39 38.7176 160.39Z" fill="#F0F0F0"/>
<path d="M41.5332 211.086H34.1309C34.1309 210.667 34.2972 210.265 34.5933 209.969C34.8893 209.673 35.2909 209.507 35.7096 209.507H39.9545C40.3732 209.507 40.7747 209.673 41.0708 209.969C41.3669 210.265 41.5332 210.667 41.5332 211.086Z" fill="#F0F0F0"/>
<path d="M39.0045 134.98H36.6641V136.41H39.0045V134.98Z" fill="#E0E0E0"/>
<path d="M53.1634 112.277L117.77 112.277L117.77 47.4946L53.1634 47.4946L53.1634 112.277Z" fill="#F0F0F0"/>
<path d="M53.1639 47.4941H52.0488V112.277H53.1639V47.4941Z" fill="#E0E0E0"/>
<path d="M58.8702 108.182H112.066V51.5851L58.8702 51.5851L58.8702 108.182Z" fill="#FAFAFA"/>
<path d="M82.4075 95.6396H88.5347C95.0221 95.6396 100.281 90.3805 100.281 83.8931V75.8725C100.281 69.3851 95.0221 64.126 88.5347 64.126H82.4075C75.92 64.126 70.6609 69.3851 70.6609 75.8725V83.8931C70.6609 90.3805 75.92 95.6396 82.4075 95.6396Z" fill="#F5F5F5"/>
<path d="M224.951 136.587H200.359V211.079H224.951V136.587Z" fill="#E6E6E6"/>
<path d="M212.945 211.086H224.951V200.802H200.359L212.945 211.086Z" fill="#FAFAFA"/>
<path d="M126.877 136.587H102.285V211.079H126.877V136.587Z" fill="#E6E6E6"/>
<path d="M224.946 136.587H116.4V207.541H224.946V136.587Z" fill="#FAFAFA"/>
<path d="M128.407 211.086H116.406V200.802H140.998L128.407 211.086Z" fill="#FAFAFA"/>
<path d="M215.64 163.028H125.719V180.786H215.64V163.028Z" fill="#F0F0F0"/>
<path d="M215.64 184.584H125.719V202.342H215.64V184.584Z" fill="#F0F0F0"/>
<path d="M194.222 164.927H147.131C146.22 164.927 145.347 164.565 144.703 163.921C144.059 163.277 143.697 162.404 143.697 161.493H197.655C197.656 161.944 197.568 162.391 197.395 162.808C197.223 163.225 196.97 163.604 196.651 163.923C196.332 164.242 195.953 164.494 195.537 164.667C195.12 164.839 194.673 164.927 194.222 164.927Z" fill="#FAFAFA"/>
<path d="M215.64 141.478H125.719V159.235H215.64V141.478Z" fill="#F0F0F0"/>
<path d="M194.222 143.376H147.131C146.22 143.375 145.346 143.012 144.703 142.367C144.059 141.722 143.697 140.849 143.697 139.938H197.655C197.656 140.389 197.568 140.836 197.395 141.253C197.223 141.67 196.97 142.049 196.652 142.369C196.333 142.688 195.954 142.942 195.537 143.115C195.12 143.287 194.673 143.376 194.222 143.376Z" fill="#FAFAFA"/>
<path d="M194.222 186.483H147.131C146.22 186.481 145.346 186.118 144.703 185.474C144.059 184.829 143.697 183.955 143.697 183.044H197.655C197.656 183.495 197.568 183.942 197.395 184.36C197.223 184.777 196.97 185.156 196.652 185.475C196.333 185.795 195.954 186.048 195.537 186.221C195.12 186.394 194.673 186.483 194.222 186.483Z" fill="#FAFAFA"/>
<path d="M138 236.013C197.109 236.013 245.027 233.215 245.027 229.764C245.027 226.313 197.109 223.516 138 223.516C78.8904 223.516 30.9727 226.313 30.9727 229.764C30.9727 233.215 78.8904 236.013 138 236.013Z" fill="#F5F5F5"/>
<path d="M41.7037 120.054H124.084C121.639 120.024 119.295 119.075 117.517 117.396C115.74 115.716 114.659 113.43 114.49 110.99L113.033 86.4375H30.6582L32.11 110.99C32.2789 113.43 33.3595 115.716 35.1369 117.396C36.9144 119.075 39.2586 120.024 41.7037 120.054Z" fill="#175C8E"/>
<path opacity="0.6" d="M41.7037 120.054H124.084C121.639 120.024 119.295 119.075 117.517 117.396C115.74 115.716 114.659 113.43 114.49 110.99L113.033 86.4375H30.6582L32.11 110.99C32.2789 113.43 33.3595 115.716 35.1369 117.396C36.9144 119.075 39.2586 120.024 41.7037 120.054Z" fill="white"/>
<path d="M130.189 70.1043H56.8559C55.6868 70.0905 54.5276 70.3196 53.4517 70.7771C52.3757 71.2345 51.4065 71.9104 50.6053 72.7619C49.8042 73.6134 49.1885 74.622 48.7974 75.7238C48.4062 76.8255 48.2481 77.9965 48.333 79.1626L50.2319 110.996C50.3185 112.163 50.1615 113.335 49.771 114.437C49.3805 115.54 48.7649 116.549 47.9634 117.401C47.1619 118.253 46.192 118.928 45.1152 119.385C44.0385 119.842 42.8785 120.07 41.709 120.055H124.084C125.253 120.07 126.413 119.842 127.49 119.385C128.567 118.928 129.537 118.253 130.338 117.401C131.14 116.549 131.755 115.54 132.146 114.437C132.536 113.335 132.693 112.163 132.607 110.996L132.811 114.441L130.725 79.1847C130.635 78.0165 130.789 76.8424 131.178 75.7372C131.567 74.632 132.182 73.62 132.984 72.7657C133.786 71.9114 134.757 71.2336 135.836 70.7753C136.914 70.3171 138.076 70.0886 139.247 70.1043H130.189Z" fill="#175C8E"/>
<path d="M139.247 70.1045H56.8555C59.3004 70.132 61.6453 71.0795 63.4232 72.7581C65.2011 74.4368 66.2815 76.7234 66.4492 79.1628L73.5424 198.776H155.917L148.841 79.1849C148.676 76.7425 147.597 74.4519 145.819 72.7691C144.041 71.0864 141.695 70.135 139.247 70.1045Z" fill="#175C8E"/>
<path opacity="0.8" d="M139.247 70.1045H56.8555C59.3004 70.132 61.6453 71.0795 63.4232 72.7581C65.2011 74.4368 66.2815 76.7234 66.4492 79.1628L73.5424 198.776H155.917L148.841 79.1849C148.676 76.7425 147.597 74.4519 145.819 72.7691C144.041 71.0864 141.695 70.135 139.247 70.1045Z" fill="white"/>
<path d="M94.2038 104.151H78.9355L78.0137 88.8721H93.2875L94.2038 104.151ZM80.5915 102.352H92.2774L91.6315 90.6661H79.9236L80.5915 102.352Z" fill="white"/>
<path d="M96.3347 140.092H81.0498L80.1445 124.808H95.4294L96.3347 140.092ZM82.7389 138.293H94.4248L93.7348 126.607H82.0489L82.7389 138.293Z" fill="white"/>
<path d="M98.4603 176.033H83.1754L82.248 160.748H97.5329L98.4603 176.033ZM84.87 174.233H96.5559L95.8604 162.548H84.1745L84.87 174.233Z" fill="white"/>
<path d="M136.808 88.8672H101.668V90.6667H136.808V88.8672Z" fill="white"/>
<path d="M133.076 95.6123H102.064V97.4118H133.076V95.6123Z" fill="white"/>
<path d="M137.603 102.353H102.463V104.152H137.603V102.353Z" fill="white"/>
<path d="M138.933 124.808H103.793V126.607H138.933V124.808Z" fill="white"/>
<path d="M124.818 131.553H104.189V133.352H124.818V131.553Z" fill="white"/>
<path d="M115.242 138.293H104.594V140.092H115.242V138.293Z" fill="white"/>
<path d="M139.734 138.293H122.164V140.092H139.734V138.293Z" fill="white"/>
<path d="M141.058 160.748H105.918V162.548H141.058V160.748Z" fill="white"/>
<path d="M141.461 167.493H106.32V169.293H141.461V167.493Z" fill="white"/>
<path d="M126.155 174.233H106.719V176.033H126.155V174.233Z" fill="white"/>
<path d="M87.5638 100.553C87.1818 100.553 86.8143 100.407 86.537 100.144L82.8 96.6002C82.6572 96.4651 82.5424 96.3031 82.4622 96.1235C82.382 95.944 82.338 95.7504 82.3326 95.5538C82.3217 95.1568 82.469 94.7717 82.742 94.4833C83.0151 94.1949 83.3915 94.0268 83.7885 94.0159C84.1855 94.0051 84.5706 94.1523 84.859 94.4254L87.5196 96.937L93.5088 90.5724C93.7811 90.2833 94.1571 90.1141 94.5541 90.1022C94.9511 90.0903 95.3366 90.2366 95.6257 90.5089C95.9149 90.7812 96.084 91.1572 96.0959 91.5542C96.1078 91.9512 95.9615 92.3367 95.6892 92.6258L88.6733 100.083C88.5388 100.228 88.3767 100.344 88.1965 100.424C88.0163 100.505 87.8218 100.549 87.6245 100.553H87.5638Z" fill="#175C8E"/>
<path d="M89.6955 136.493C89.3133 136.495 88.9454 136.348 88.6688 136.085L84.9152 132.541C84.7673 132.407 84.6476 132.245 84.5631 132.065C84.4786 131.885 84.431 131.689 84.4231 131.49C84.4151 131.291 84.4471 131.092 84.5169 130.906C84.5868 130.719 84.6933 130.548 84.8301 130.404C84.9669 130.259 85.1312 130.143 85.3135 130.062C85.4957 129.982 85.6922 129.938 85.8914 129.935C86.0906 129.931 86.2885 129.968 86.4735 130.042C86.6585 130.116 86.8268 130.226 86.9686 130.366L89.6348 132.877L95.6184 126.513C95.8907 126.224 96.2667 126.055 96.6637 126.043C97.0607 126.031 97.4462 126.177 97.7353 126.449C98.0245 126.722 98.1936 127.098 98.2055 127.495C98.2174 127.892 98.0711 128.277 97.7988 128.566L90.7829 136.024C90.6493 136.168 90.4881 136.284 90.3088 136.364C90.1296 136.445 89.9361 136.489 89.7396 136.493H89.6955Z" fill="#175C8E"/>
<path d="M91.8205 172.44C91.4377 172.439 91.0698 172.291 90.7938 172.026L87.0402 168.482C86.8923 168.348 86.7726 168.187 86.6881 168.006C86.6036 167.826 86.556 167.63 86.5481 167.431C86.5401 167.232 86.5721 167.033 86.642 166.847C86.7119 166.66 86.8183 166.49 86.9551 166.345C87.0919 166.2 87.2562 166.084 87.4385 166.003C87.6207 165.923 87.8172 165.879 88.0164 165.876C88.2156 165.872 88.4135 165.909 88.5985 165.983C88.7835 166.057 88.9518 166.167 89.0936 166.307L91.7598 168.819L97.749 162.454C98.0294 162.213 98.3891 162.085 98.7587 162.093C99.1283 162.102 99.4817 162.247 99.7505 162.501C100.019 162.755 100.185 163.099 100.215 163.467C100.245 163.836 100.137 164.202 99.9128 164.496L92.8969 171.954C92.7618 172.098 92.5995 172.213 92.4195 172.294C92.2395 172.374 92.0452 172.418 91.8481 172.423L91.8205 172.44Z" fill="#175C8E"/>
<path d="M170.986 87.8364L160.266 90.4717L192.259 220.628L202.98 217.993L170.986 87.8364Z" fill="#175C8E"/>
<path opacity="0.2" d="M170.981 87.8353L167.717 88.6377L199.71 218.794L202.975 217.992L170.981 87.8353Z" fill="black"/>
<path d="M202.171 219.929L193.862 221.971C193.196 222.135 192.789 222.808 192.953 223.474L194.344 229.134C194.508 229.8 195.181 230.208 195.847 230.044L204.155 228.002C204.821 227.838 205.229 227.165 205.065 226.499L203.674 220.838C203.51 220.172 202.837 219.765 202.171 219.929Z" fill="#175C8E"/>
<path opacity="0.7" d="M202.171 219.929L193.862 221.971C193.196 222.135 192.789 222.808 192.953 223.474L194.344 229.134C194.508 229.8 195.181 230.208 195.847 230.044L204.155 228.002C204.821 227.838 205.229 227.165 205.065 226.499L203.674 220.838C203.51 220.172 202.837 219.765 202.171 219.929Z" fill="white"/>
<path d="M202.235 216.121L192.045 218.625C191.429 218.777 191.052 219.399 191.204 220.014L192.116 223.724C192.267 224.34 192.889 224.716 193.505 224.565L203.695 222.06C204.311 221.908 204.687 221.287 204.536 220.671L203.624 216.961C203.473 216.346 202.851 215.969 202.235 216.121Z" fill="#E0E0E0"/>
<path d="M170.987 87.8235L160.268 90.4621L161.526 81.4921L162.332 75.7402L165.716 80.4598L170.987 87.8235Z" fill="#E0E0E0"/>
<path d="M165.717 80.4598L161.527 81.4921L162.333 75.7402L165.717 80.4598Z" fill="#175C8E"/>
<path d="M198.676 79.3115C198.621 82.6235 197.981 88.8666 199.725 90.9035C195.716 92.2221 192.121 94.5666 189.298 97.7042C186.908 93.796 190.027 91.6929 190.027 91.6929C193.466 90.5889 193.256 88 192.533 85.6209L198.676 79.3115Z" fill="#FFB573"/>
<path d="M188.281 94.3314C189.192 90.9477 186.625 90.4674 190.903 88.8114C194.248 87.4866 200.569 87.2989 202.054 88.3643C202.876 88.9605 201.745 91.047 201.745 91.047L188.281 94.3314Z" fill="#263238"/>
<path d="M206.825 93.6029C207.073 94.0003 207.25 94.3039 207.449 94.6517C207.647 94.9994 207.813 95.3196 208.001 95.6563C208.354 96.3298 208.685 97.0032 209.005 97.6877C209.646 99.0511 210.203 100.448 210.716 101.861C211.747 104.723 212.487 107.682 212.924 110.693L213.068 111.83C213.096 111.99 213.118 112.277 213.134 112.525C213.151 112.774 213.134 113 213.134 113.221C213.122 114.035 213.061 114.848 212.952 115.655C212.759 117.179 212.466 118.62 212.146 120.071C211.494 122.903 210.67 125.692 209.679 128.423C209.547 128.793 209.285 129.103 208.941 129.294C208.598 129.485 208.197 129.545 207.813 129.462C207.428 129.378 207.088 129.158 206.854 128.842C206.621 128.526 206.51 128.136 206.543 127.744C206.764 124.94 207.024 122.114 207.228 119.354C207.327 117.974 207.404 116.594 207.426 115.291C207.426 114.645 207.426 114.005 207.366 113.469L207.316 113.1L207.244 112.741L207.04 111.78C206.45 109.193 205.657 106.657 204.666 104.196C204.17 102.959 203.634 101.734 203.071 100.525C202.792 99.9178 202.499 99.3216 202.194 98.7365L201.73 97.8643L201.294 97.0639L201.216 96.9204C200.814 96.1792 200.717 95.3104 200.945 94.4985C201.173 93.6867 201.709 92.9957 202.438 92.5725C203.168 92.1492 204.033 92.027 204.851 92.2318C205.669 92.4365 206.375 92.9522 206.819 93.6691L206.825 93.6029Z" fill="#FFB573"/>
<path d="M205.344 129.538L205.802 128.776L207.094 126.602L209.462 127.943C209.953 130.151 208.452 132.105 208.452 132.105L207.784 132.657C207.556 132.855 207.262 132.959 206.96 132.948C206.659 132.936 206.373 132.811 206.161 132.596L205.648 132.122C205.325 131.782 205.12 131.346 205.066 130.88C205.011 130.415 205.109 129.944 205.344 129.538Z" fill="#FFB573"/>
<path d="M173.88 128.412L173.499 127.032C173.41 126.707 173.197 126.431 172.906 126.261C172.615 126.092 172.269 126.044 171.943 126.126L170.287 126.552L169.265 126.805C168.728 126.946 168.251 127.257 167.907 127.692C167.562 128.127 167.369 128.663 167.356 129.218V130.04C167.353 130.398 167.487 130.744 167.73 131.008C167.973 131.271 168.306 131.432 168.664 131.459L169.685 131.558C171.217 131.314 172.621 130.559 173.67 129.416C173.784 129.278 173.863 129.115 173.899 128.94C173.936 128.765 173.929 128.584 173.88 128.412Z" fill="#FFB573"/>
<path d="M204.064 91.1743C206.962 92.4605 209.617 95.5241 211.792 101.193C211.096 103.528 203.915 107.353 203.915 107.353C203.915 107.353 194.956 88.3591 204.064 91.1743Z" fill="#175C8E"/>
<path d="M180.09 98.4325C180.118 100.536 176.635 105.41 180.642 108.236C180.99 112.492 181.459 116.682 182.37 123.664H203.804C201.767 115.936 203.528 110.748 206.796 97.1684C206.983 96.4387 207.009 95.6773 206.874 94.9363C206.739 94.1954 206.446 93.4923 206.014 92.8753C205.582 92.2583 205.022 91.7419 204.372 91.3615C203.722 90.9811 202.997 90.7457 202.248 90.6714C201.392 90.5886 200.487 90.5168 199.565 90.4671C196.323 90.2349 193.069 90.2349 189.828 90.4671C188.773 90.561 187.686 90.6934 186.643 90.837C184.819 91.1027 183.153 92.017 181.949 93.4122C180.746 94.8074 180.086 96.5899 180.09 98.4325Z" fill="#175C8E"/>
<path d="M187.189 96.3851C187.239 97.9638 187.189 99.4763 187.189 101.022C187.189 102.567 187.09 104.096 186.99 105.642C186.819 108.776 186.451 111.895 185.886 114.982C185.82 115.374 185.715 115.782 185.621 116.18C185.528 116.577 185.445 116.975 185.318 117.394L185.141 118.007L185.047 118.316C185.012 118.455 184.968 118.591 184.915 118.724C184.684 119.319 184.368 119.877 183.976 120.38C183.438 121.079 182.85 121.738 182.216 122.351C181.636 122.931 181.045 123.455 180.449 124.007C178.102 126.029 175.607 127.875 172.986 129.527C172.657 129.734 172.265 129.816 171.88 129.758C171.496 129.7 171.145 129.505 170.892 129.211C170.639 128.916 170.5 128.54 170.5 128.151C170.5 127.763 170.64 127.387 170.894 127.093C172.865 124.846 174.896 122.616 176.789 120.408C177.253 119.856 177.706 119.304 178.136 118.752C178.541 118.262 178.909 117.743 179.24 117.201C179.373 116.997 179.456 116.748 179.384 116.886C179.312 117.024 179.384 116.815 179.384 116.754L179.434 116.511L179.538 116.031C179.616 115.722 179.66 115.374 179.715 115.037C179.77 114.7 179.836 114.364 179.87 114.01C180.245 111.223 180.422 108.286 180.526 105.35C180.631 102.413 180.698 99.4211 180.714 96.5175C180.709 96.092 180.789 95.6697 180.947 95.2748C181.106 94.8799 181.34 94.52 181.638 94.2158C182.239 93.6014 183.059 93.2509 183.919 93.2414C184.778 93.2319 185.606 93.5642 186.22 94.1651C186.835 94.766 187.185 95.5864 187.195 96.4458L187.189 96.3851Z" fill="#FFB573"/>
<path d="M184.826 91.3284C182.182 92.6422 179.56 95.1924 178.473 101.033C179.163 103.345 188.613 107.8 188.613 107.8C188.613 107.8 193.873 87.9502 184.826 91.3284Z" fill="#175C8E"/>
<path d="M185.406 77.2025C185.478 77.6165 185.313 78.0029 185.037 78.0526C184.761 78.1023 184.485 77.8152 184.413 77.3957C184.341 76.9762 184.512 76.5953 184.783 76.5456C185.053 76.4959 185.34 76.783 185.406 77.2025Z" fill="#263238"/>
<path d="M184.922 76.5405L183.867 76.4521C183.867 76.4521 184.502 77.1311 184.922 76.5405Z" fill="#263238"/>
<path d="M185.306 77.667C185.09 78.6962 184.735 79.6914 184.252 80.6257C184.494 80.7387 184.758 80.7972 185.025 80.7972C185.292 80.7972 185.556 80.7387 185.798 80.6257L185.306 77.667Z" fill="#ED893E"/>
<path d="M184.313 74.3543C184.25 74.3538 184.189 74.3303 184.142 74.2881C184.119 74.265 184.1 74.2375 184.088 74.2072C184.075 74.1768 184.068 74.1443 184.068 74.1114C184.068 74.0786 184.075 74.0461 184.088 74.0157C184.1 73.9854 184.119 73.9579 184.142 73.9348C184.412 73.6378 184.748 73.409 185.123 73.267C185.498 73.125 185.902 73.0739 186.3 73.1179C186.332 73.1238 186.362 73.136 186.389 73.1537C186.416 73.1714 186.439 73.1942 186.457 73.2209C186.475 73.2477 186.488 73.2777 186.494 73.3092C186.5 73.3408 186.5 73.3733 186.494 73.4049C186.48 73.471 186.442 73.5293 186.386 73.5674C186.33 73.6056 186.262 73.6205 186.196 73.6091C185.88 73.5804 185.562 73.6259 185.266 73.7418C184.971 73.8578 184.707 74.0411 184.495 74.277C184.447 74.3259 184.382 74.3536 184.313 74.3543Z" fill="#263238"/>
<path d="M199.069 73.0905C199.621 78.2793 199.952 80.4652 197.838 83.5785C194.653 88.2981 188.249 87.9945 186.19 83.1203C184.336 78.7043 183.756 70.9763 188.371 67.9624C189.363 67.2854 190.517 66.8811 191.715 66.7902C192.913 66.6992 194.114 66.9247 195.197 67.4441C196.281 67.9635 197.209 68.7585 197.888 69.7495C198.568 70.7405 198.975 71.8926 199.069 73.0905Z" fill="#FFB573"/>
<path d="M189.629 76.8827C186.317 76.2976 185.517 72.4943 186.742 70.8383C181.161 71.0867 177.402 64.8436 183.43 61.2832C189.458 57.7228 194.779 63.2373 194.349 65.3183C201.773 64.6449 206.123 70.7555 202.077 75.2985C207.414 76.1651 215.407 82.1819 209.54 88.5023C217.472 89.6671 218.333 114.507 196.739 110.091C173.974 105.432 193.752 85.6209 193.752 85.6209C193.752 85.6209 187.984 83.998 189.629 76.8827Z" fill="#263238"/>
<path d="M210.777 90.1199L210.307 89.8329C212.311 86.5761 212.642 83.6118 211.29 81.0009C209.551 77.6889 205.334 75.7348 202.061 75.5471L202.094 74.9951C205.516 75.1883 209.949 77.2031 211.781 80.7414C213.205 83.5014 212.858 86.7362 210.777 90.1199Z" fill="#263238"/>
<path d="M204.5 75.8565C206.405 75.5418 205.505 72.4341 204.103 71.6116C202.701 70.7891 195.983 72.1249 196.723 74.2667C197.462 76.4085 201.945 76.2815 204.5 75.8565Z" fill="white"/>
<path d="M204.841 75.0726C206.74 74.7083 205.979 72.1912 204.554 71.4019C203.13 70.6125 197.263 71.1976 198.063 73.3118C198.863 75.4259 202.302 75.575 204.841 75.0726Z" fill="#175C8E"/>
<path d="M184.947 71.4672C183.675 71.4501 182.446 71.0091 181.453 70.2142C179.869 68.9832 178.997 67.1395 179.245 65.5167C179.394 64.4844 180.04 63.0658 182.292 62.166L182.496 62.6794C180.907 63.3142 179.974 64.3354 179.791 65.5939C179.593 67.0291 180.382 68.6686 181.812 69.7781C182.475 70.3311 183.274 70.6973 184.126 70.839C184.978 70.9806 185.852 70.8926 186.658 70.584L186.868 71.0974C186.259 71.3468 185.606 71.4725 184.947 71.4672Z" fill="#263238"/>
<path d="M190.937 77.4901C190.689 78.848 190.612 79.4276 189.905 80.0624C189.704 80.287 189.44 80.4458 189.148 80.5178C188.855 80.5899 188.548 80.572 188.266 80.4664C187.983 80.3608 187.74 80.1725 187.566 79.9261C187.393 79.6797 187.298 79.3866 187.294 79.0854C187.184 77.8379 187.609 75.8286 188.873 75.4091C190.137 74.9896 191.186 76.1377 190.937 77.4901Z" fill="#FFB573"/>
<path d="M187.89 81.8122L187.443 81.0118C187.424 80.979 187.414 80.9419 187.414 80.9041C187.414 80.8663 187.424 80.8292 187.443 80.7965L187.89 80.0016C187.909 79.9671 187.937 79.9383 187.971 79.9183C188.005 79.8983 188.044 79.8877 188.083 79.8877C188.123 79.8877 188.161 79.8983 188.195 79.9183C188.229 79.9383 188.257 79.9671 188.276 80.0016L188.724 80.7965C188.742 80.8292 188.752 80.8663 188.752 80.9041C188.752 80.9419 188.742 80.979 188.724 81.0118L188.276 81.8122C188.257 81.8467 188.229 81.8754 188.195 81.8955C188.161 81.9155 188.123 81.9261 188.083 81.9261C188.044 81.9261 188.005 81.9155 187.971 81.8955C187.937 81.8754 187.909 81.8467 187.89 81.8122Z" fill="white"/>
<path d="M182.382 123.648C182.382 123.648 181.625 151.326 180.615 169.531C179.544 186.24 178.17 225.316 178.17 225.316L182.393 225.537C182.393 225.537 191.733 192.654 191.341 172.787C202.303 145 198.362 124.482 198.362 124.482L182.382 123.648Z" fill="#FFB573"/>
<path d="M178.485 223.56C178.39 223.493 178.278 223.456 178.162 223.456C178.046 223.456 177.933 223.493 177.839 223.56C175.812 225.065 173.358 225.881 170.834 225.89C168.03 226.011 168.72 227.546 172.733 228.059C177.452 228.644 178.462 229.616 179.986 229.997C181.509 230.378 182.718 229.218 182.691 226.017C182.688 225.907 182.653 225.801 182.59 225.712C182.528 225.623 182.439 225.554 182.337 225.514C180.981 225.017 179.688 224.361 178.485 223.56Z" fill="#263238"/>
<path d="M187.984 123.648C187.984 123.648 195.712 156.404 200.189 171.672C204.898 187.68 208.629 224.212 208.602 225.421H212.256C212.256 225.421 216.975 195.811 211.152 171.656C210.6 132.464 203.843 123.676 203.843 123.676L187.984 123.648Z" fill="#FFB573"/>
<path d="M208.507 224.112C208.412 224.073 208.307 224.066 208.207 224.091C208.108 224.117 208.019 224.175 207.955 224.255C207.011 225.481 206.327 226.839 203.539 228.031C201.232 229.014 202.507 230.36 206.117 229.869C210.362 229.284 210.423 229.974 211.852 229.974C213.282 229.974 213.955 228.55 212.912 225.453C212.879 225.351 212.818 225.259 212.736 225.189C212.654 225.119 212.555 225.073 212.448 225.056C211.101 224.902 209.778 224.585 208.507 224.112Z" fill="#263238"/>
<path d="M182.381 123.648C182.381 123.648 178.737 147.903 179.251 181.056C190.776 180.991 202.228 179.224 213.237 175.812C213.237 175.812 213.403 132.856 203.815 123.665C198.278 122.174 182.508 123.162 182.381 123.648Z" fill="#263238"/>
<path opacity="0.2" d="M182.807 176.347C182.772 176.347 182.737 176.334 182.711 176.309C182.686 176.284 182.671 176.251 182.669 176.215C181.637 155.046 184.143 125.161 184.165 124.879C184.166 124.861 184.17 124.842 184.178 124.826C184.186 124.809 184.198 124.795 184.212 124.783C184.226 124.771 184.242 124.762 184.26 124.757C184.277 124.751 184.296 124.75 184.314 124.752C184.332 124.753 184.35 124.758 184.366 124.767C184.382 124.775 184.397 124.786 184.409 124.8C184.42 124.814 184.429 124.83 184.435 124.847C184.441 124.865 184.443 124.883 184.441 124.901C184.413 125.205 181.913 155.068 182.945 176.237C182.947 176.255 182.944 176.274 182.938 176.291C182.932 176.309 182.923 176.324 182.91 176.338C182.898 176.351 182.883 176.362 182.866 176.37C182.849 176.377 182.831 176.381 182.813 176.381L182.807 176.347Z" fill="white"/>
<path opacity="0.2" d="M197.23 155.178L200.371 138.541L201.635 142.521L197.23 155.178Z" fill="black"/>
</svg>
