<svg width="21" height="20" viewBox="0 0 21 20" fill="none" xmlns="http://www.w3.org/2000/svg">
<mask id="mask0_4204_20358" style="mask-type:alpha" maskUnits="userSpaceOnUse" x="0" y="0" width="21" height="20">
<rect x="0.5" width="20" height="20" fill="#D9D9D9"/>
</mask>
<g mask="url(#mask0_4204_20358)">
<path d="M10.379 17.9163C9.02563 17.9163 7.87674 17.4413 6.93229 16.4913C5.98785 15.5415 5.51562 14.3899 5.51562 13.0365V5.54447C5.51562 4.58294 5.84951 3.76565 6.51729 3.09259C7.18493 2.41954 7.99951 2.08301 8.96104 2.08301C9.92257 2.08301 10.7372 2.41954 11.405 3.09259C12.0728 3.76565 12.4067 4.58294 12.4067 5.54447V11.0413C12.4067 11.2184 12.3467 11.3669 12.2269 11.4868C12.107 11.6065 11.9585 11.6663 11.7815 11.6663C11.6042 11.6663 11.4558 11.6065 11.336 11.4868C11.2165 11.3669 11.1567 11.2184 11.1567 11.0413V5.53655C11.1481 4.92113 10.9343 4.40002 10.5154 3.97322C10.0965 3.54641 9.5784 3.33301 8.96104 3.33301C8.34632 3.33301 7.82674 3.54773 7.40229 3.97717C6.97785 4.40676 6.76562 4.92919 6.76562 5.54447V13.0365C6.75701 14.0441 7.10528 14.9009 7.81042 15.607C8.51556 16.3132 9.37188 16.6663 10.3794 16.6663C10.6155 16.6663 10.8431 16.642 11.0621 16.5934C11.2811 16.5448 11.4905 16.4831 11.6902 16.4084C11.8537 16.3463 12.0151 16.3485 12.1746 16.4149C12.3339 16.4813 12.4454 16.5961 12.5092 16.7593C12.5711 16.9227 12.5676 17.0846 12.4988 17.2449C12.4299 17.4052 12.3137 17.5163 12.1502 17.5782C11.8745 17.6893 11.5885 17.7734 11.2921 17.8305C10.9956 17.8877 10.6912 17.9163 10.379 17.9163ZM14.6019 17.083C14.4247 17.083 14.2762 17.0231 14.1567 16.9032C14.0369 16.7835 13.9771 16.6351 13.9771 16.458V14.7432H12.2625C12.0854 14.7432 11.9369 14.6833 11.8171 14.5634C11.6974 14.4436 11.6375 14.2951 11.6375 14.118C11.6375 13.9408 11.6974 13.7924 11.8171 13.6728C11.9369 13.5531 12.0854 13.4932 12.2625 13.4932H13.9771V11.7786C13.9771 11.6015 14.037 11.4531 14.1569 11.3332C14.2767 11.2135 14.4253 11.1536 14.6025 11.1536C14.7796 11.1536 14.928 11.2135 15.0477 11.3332C15.1673 11.4531 15.2271 11.6015 15.2271 11.7786V13.4932H16.9419C17.119 13.4932 17.2674 13.5531 17.3871 13.673C17.5069 13.7929 17.5669 13.9414 17.5669 14.1186C17.5669 14.2957 17.5069 14.4441 17.3871 14.5638C17.2674 14.6834 17.119 14.7432 16.9419 14.7432H15.2271V16.458C15.2271 16.6351 15.1672 16.7835 15.0473 16.9032C14.9274 17.0231 14.779 17.083 14.6019 17.083ZM8.96083 14.1182C8.78375 14.1182 8.63535 14.0584 8.51562 13.9386C8.39604 13.8188 8.33625 13.6703 8.33625 13.4932V5.9453C8.33625 5.76822 8.39611 5.61974 8.51583 5.49988C8.63569 5.38016 8.78424 5.3203 8.96146 5.3203C9.13854 5.3203 9.28694 5.38016 9.40667 5.49988C9.52625 5.61974 9.58604 5.76822 9.58604 5.9453V13.4932C9.58604 13.6703 9.52611 13.8188 9.40625 13.9386C9.28653 14.0584 9.13806 14.1182 8.96083 14.1182ZM14.6019 9.32655C14.4247 9.32655 14.2762 9.26669 14.1567 9.14697C14.0369 9.02711 13.9771 8.87863 13.9771 8.70155V5.9453C13.9771 5.76822 14.037 5.61974 14.1569 5.49988C14.2767 5.38016 14.4253 5.3203 14.6025 5.3203C14.7796 5.3203 14.928 5.38016 15.0477 5.49988C15.1673 5.61974 15.2271 5.76822 15.2271 5.9453V8.70155C15.2271 8.87863 15.1672 9.02711 15.0473 9.14697C14.9274 9.26669 14.779 9.32655 14.6019 9.32655Z" fill="#4B4B4B"/>
</g>
</svg>
