<svg width="278" height="279" viewBox="0 0 278 279" fill="none" xmlns="http://www.w3.org/2000/svg">
<path d="M82.677 45.1169L81.2527 44.3184C80.9317 44.1388 80.6107 43.9691 80.2897 43.8094C80.3298 48.3708 79.2164 53.0021 76.799 57.2541L63.3175 80.9596C56.1655 93.536 40.3367 98.1573 27.5374 91.5996C27.6276 100.862 32.5327 109.825 41.2094 114.716L42.6338 115.515C46.9872 117.96 51.7218 119.078 56.3861 118.988C46.8769 128.101 34.238 128.62 34.238 128.62C40.5875 135.617 52.3437 135.178 52.3437 135.178C55.0219 135.178 57.5898 134.25 59.7966 133.022C63.5883 130.916 66.6577 127.742 68.8044 123.979L79.3869 105.384L80.8013 102.908L92.8784 81.6783C100.211 68.7825 95.657 52.4132 82.6971 45.1169H82.677Z" fill="#E9993F"/>
<path d="M44.318 54.2276C51.4721 41.6525 67.3055 37.0317 80.1086 43.5887C80.0183 34.327 75.1117 25.3648 66.4325 20.4745L65.0077 19.6761C60.653 17.2309 55.9171 16.1132 51.2514 16.203C60.7634 7.09107 73.406 6.5721 73.406 6.5721C67.0546 -0.424024 55.295 0.00512455 55.295 0.00512455C52.3651 0.00512455 49.5858 1.11293 47.2479 2.50017C43.726 4.59602 40.8664 7.63 38.8496 11.1829L28.2539 29.796L26.8392 32.2711L14.7685 53.509C7.4338 66.4034 11.9891 82.7709 24.9528 90.0664L26.3776 90.8649C26.6987 91.0445 27.0198 91.2142 27.3408 91.3739C27.3007 86.8129 28.4145 82.1821 30.8326 77.9305L44.318 54.2276Z" fill="#2D5B8A"/>
<path d="M63.1941 80.2427L76.6285 56.4982C79.0375 52.2392 80.157 47.6002 80.107 43.0313C67.3523 36.4628 51.5789 41.0917 44.4519 53.6889L31.0175 77.4334C28.6085 81.6924 27.489 86.3314 27.539 90.9003C40.2936 97.4688 56.067 92.8399 63.1941 80.2427Z" fill="#264663"/>
<path d="M121.415 125.295V108.109H135.446V78.4814H153.571V108.109H184.3V125.295H121.415ZM122.992 45.3865H164.122V27.4247C164.122 21.1161 161.131 18.9131 155.135 18.9131H122.979V1.73987H163.797C176.251 1.73987 182.084 7.8857 182.084 20.3401V95.517H164.122V62.5723H122.992V45.399V45.3865Z" fill="#2D5B8A"/>
<path d="M195.803 27.262C195.803 10.2389 206.68 0 222.439 0C238.198 0 249.075 10.2389 249.075 27.262V46.488C249.075 63.5111 238.198 74.0754 222.439 74.0754C206.68 74.0754 195.803 63.5111 195.803 46.488V27.262ZM224.492 125.295C211.725 125.295 204.953 119.299 204.953 106.695V81.7984H222.915V102.764C222.915 107.646 224.642 108.91 229.223 108.91H259.64V0.788569H276.813V125.295H224.492ZM213.928 46.6507C213.928 54.5364 218.346 57.2151 222.439 57.2151C226.532 57.2151 230.951 54.5364 230.951 46.6507V27.262C230.951 19.539 226.532 16.6976 222.439 16.6976C218.346 16.6976 213.928 19.539 213.928 27.262V46.6507Z" fill="#2D5B8A"/>
<path d="M37.5134 278.477L31.0546 174.612C30.8919 172.722 30.266 171.62 28.8516 171.62H27.2745C26.173 171.62 25.3844 172.722 25.2217 174.612L17.8116 278.477H0L7.88567 171.457C8.83696 160.58 14.8201 153.959 26.9616 153.959H29.3272C41.1433 153.959 47.2891 160.73 48.2404 171.457L56.7519 278.477H37.5258H37.5134ZM80.8471 153.971V205.829H90.1472V223.015H80.8471V278.49H62.8852V153.971H80.8471Z" fill="#2D5B8A"/>
<path d="M113.792 226.62H95.83L105.756 191.159C107.333 185.013 111.276 181.07 116.783 179.18V171.295H99.1344V154.91H152.569V171.295H134.92V179.331C140.278 181.383 144.058 185.476 145.635 191.147L155.248 226.607H137.123L129.563 198.557C129.088 196.504 128.299 195.252 126.259 195.252H124.994C122.942 195.252 122.316 196.354 121.69 198.557L113.804 226.607L113.792 226.62ZM127.811 278.477C114.568 278.477 105.268 268.864 105.268 255.934V254.044C105.268 240.964 114.568 231.664 127.811 231.664H156.5C168.641 231.664 179.043 240.964 179.043 254.044V255.934C179.043 268.864 168.641 278.477 156.5 278.477H127.811ZM123.718 255.471C123.718 259.564 126.709 261.93 130.489 261.93H153.658C157.438 261.93 160.593 259.414 160.593 255.471V254.52C160.593 250.89 157.751 248.211 153.658 248.211H130.489C126.86 248.211 123.718 250.577 123.718 254.52V255.471ZM177.779 153.971V183.912H187.079V201.248H177.779V226.62H159.654V153.971H177.779Z" fill="#2D5B8A"/>
<path d="M219.698 224.73C203.939 224.73 197.943 218.421 197.943 201.248V153.971H215.905V199.683C215.905 205.829 218.421 207.569 223.153 207.569H250.74V224.742H219.685L219.698 224.73ZM277.063 231.664V278.477H221.901C209.296 278.477 204.089 271.706 204.089 259.727V231.677H277.063V231.664ZM222.064 255.784C222.064 260.516 223.641 261.93 227.897 261.93H258.951V248.224H222.076V255.784H222.064ZM277.063 153.971V225.994H258.939V153.971H277.063Z" fill="#2D5B8A"/>
</svg>
