<svg width="20" height="20" viewBox="0 0 20 20" fill="none" xmlns="http://www.w3.org/2000/svg">
<path d="M15 6.666H14.167V5C14.1501 3.90616 13.7036 2.86285 12.9241 2.0953C12.1446 1.32776 11.0945 0.897552 10.0005 0.897552C8.90653 0.897552 7.85643 1.32776 7.0769 2.0953C6.29738 2.86285 5.85095 3.90616 5.83401 5V6.666H5.00001C4.5583 6.66732 4.13506 6.84337 3.82272 7.15571C3.51038 7.46805 3.33433 7.89129 3.33301 8.333V16.666C3.33433 17.1077 3.51038 17.531 3.82272 17.8433C4.13506 18.1556 4.5583 18.3317 5.00001 18.333H15C15.4417 18.3317 15.865 18.1556 16.1773 17.8433C16.4896 17.531 16.6657 17.1077 16.667 16.666V8.333C16.6657 7.89129 16.4896 7.46805 16.1773 7.15571C15.865 6.84337 15.4417 6.66732 15 6.666ZM10 14.166C9.67031 14.166 9.34801 14.0682 9.07387 13.8851C8.79974 13.7019 8.58607 13.4415 8.4599 13.1369C8.33373 12.8323 8.30072 12.4972 8.36504 12.1738C8.42936 11.8504 8.58813 11.5534 8.82126 11.3203C9.05439 11.0871 9.35143 10.9284 9.67479 10.864C9.99816 10.7997 10.3333 10.8327 10.6379 10.9589C10.9425 11.0851 11.2029 11.2987 11.3861 11.5729C11.5692 11.847 11.667 12.1693 11.667 12.499C11.6657 12.9407 11.4896 13.364 11.1773 13.6763C10.865 13.9886 10.4417 14.1647 10 14.166ZM7.50001 6.666V5C7.50001 4.33696 7.7634 3.70108 8.23224 3.23224C8.70108 2.76339 9.33697 2.5 10 2.5C10.663 2.5 11.2989 2.76339 11.7678 3.23224C12.2366 3.70108 12.5 4.33696 12.5 5V6.666H7.50001Z" fill="#A1A1A1"/>
</svg>
