<svg width="16" height="16" viewBox="0 0 16 16" fill="none" xmlns="http://www.w3.org/2000/svg">
<path d="M11.7536 10.3409H11.0128L10.7502 10.0878C11.7799 8.88903 12.3049 7.33811 12.2148 5.76072C12.1247 4.18332 11.4266 2.70216 10.2671 1.62821C9.10759 0.554267 7.57682 -0.0289183 5.99622 0.00110423C4.41562 0.0311268 2.90813 0.672021 1.79027 1.78922C0.672415 2.90642 0.031145 4.41303 0.00110487 5.99271C-0.0289353 7.57238 0.554591 9.10225 1.62916 10.2611C2.70374 11.4199 4.18577 12.1176 5.76409 12.2076C7.34241 12.2977 8.89424 11.773 10.0938 10.7439L10.347 11.0063V11.7467L14.3325 15.7299C14.5195 15.9066 14.7681 16.0035 15.0254 15.9999C15.2827 15.9963 15.5285 15.8925 15.7105 15.7107C15.8925 15.5288 15.9963 15.2832 15.9999 15.026C16.0035 14.7688 15.9066 14.5203 15.7297 14.3334L11.7536 10.3409ZM6.12701 10.3409C5.29238 10.3409 4.4765 10.0935 3.78253 9.63013C3.08856 9.1667 2.54768 8.50802 2.22828 7.73738C1.90888 6.96674 1.82531 6.11874 1.98814 5.30063C2.15097 4.48252 2.55288 3.73104 3.14305 3.14121C3.73322 2.55139 4.48515 2.14971 5.30374 1.98698C6.12233 1.82425 6.97082 1.90777 7.74191 2.22698C8.51301 2.54619 9.17207 3.08675 9.63577 3.78031C10.0995 4.47387 10.347 5.28928 10.347 6.12342C10.3477 6.67747 10.2391 7.22623 10.0272 7.73825C9.81543 8.25028 9.50462 8.7155 9.11262 9.10728C8.72061 9.49905 8.25511 9.80968 7.74279 10.0214C7.23047 10.2331 6.68139 10.3416 6.12701 10.3409Z" fill="#B5C1CD"/>
</svg>
