<svg width="16" height="16" viewBox="0 0 16 16" fill="none" xmlns="http://www.w3.org/2000/svg">
<path d="M7.99933 8.87047L10.5682 11.4394C10.6836 11.5548 10.8287 11.6111 11.0033 11.6085C11.178 11.6058 11.323 11.5468 11.4384 11.4314C11.5538 11.316 11.6115 11.171 11.6115 10.9963C11.6115 10.8216 11.5538 10.6766 11.4384 10.5612L8.86949 8.00031L11.4384 5.43139C11.5538 5.316 11.6115 5.17097 11.6115 4.9963C11.6115 4.82162 11.5538 4.6766 11.4384 4.56122C11.323 4.44583 11.178 4.38814 11.0033 4.38814C10.8287 4.38814 10.6836 4.44583 10.5682 4.56122L7.99933 7.13014L5.43041 4.56122C5.31502 4.44583 5.17133 4.38814 4.99933 4.38814C4.82733 4.38814 4.68363 4.44583 4.56824 4.56122C4.45287 4.6766 4.39518 4.82162 4.39518 4.9963C4.39518 5.17097 4.45287 5.316 4.56824 5.43139L7.12916 8.00031L4.56024 10.5692C4.44486 10.6846 4.38849 10.8283 4.39116 11.0003C4.39384 11.1723 4.45287 11.316 4.56824 11.4314C4.68363 11.5468 4.82866 11.6045 5.00333 11.6045C5.17801 11.6045 5.32304 11.5468 5.43841 11.4314L7.99933 8.87047ZM2.42243 15.0836C2.00149 15.0836 1.64518 14.9378 1.35352 14.6461C1.06185 14.3545 0.916016 13.9981 0.916016 13.5772V2.42341C0.916016 2.00247 1.06185 1.64616 1.35352 1.35449C1.64518 1.06283 2.00149 0.916992 2.42243 0.916992H13.5762C13.9972 0.916992 14.3535 1.06283 14.6451 1.35449C14.9368 1.64616 15.0826 2.00247 15.0826 2.42341V13.5772C15.0826 13.9981 14.9368 14.3545 14.6451 14.6461C14.3535 14.9378 13.9972 15.0836 13.5762 15.0836H2.42243ZM2.42243 13.8336H13.5762C13.6403 13.8336 13.6991 13.8069 13.7525 13.7535C13.806 13.7001 13.8327 13.6413 13.8327 13.5772V2.42341C13.8327 2.3593 13.806 2.30053 13.7525 2.2471C13.6991 2.19368 13.6403 2.16697 13.5762 2.16697H2.42243C2.35832 2.16697 2.29955 2.19368 2.24612 2.2471C2.1927 2.30053 2.16599 2.3593 2.16599 2.42341V13.5772C2.16599 13.6413 2.1927 13.7001 2.24612 13.7535C2.29955 13.8069 2.35832 13.8336 2.42243 13.8336Z" fill="#4B4B4B"/>
</svg>
