<svg width="15" height="16" viewBox="0 0 15 16" fill="none" xmlns="http://www.w3.org/2000/svg">
<path d="M6.33266 9.45545L4.39674 7.51956C4.28137 7.40417 4.13634 7.34514 3.96166 7.34247C3.78699 7.33979 3.6393 7.39882 3.51858 7.51956C3.39784 7.64028 3.33747 7.78664 3.33747 7.95864C3.33747 8.13064 3.39784 8.277 3.51858 8.39772L5.80543 10.6846C5.95607 10.8352 6.13181 10.9105 6.33266 10.9105C6.53351 10.9105 6.70925 10.8352 6.85989 10.6846L11.4961 6.04837C11.6115 5.93299 11.6705 5.78796 11.6732 5.61328C11.6759 5.4386 11.6168 5.2909 11.4961 5.17018C11.3754 5.04946 11.229 4.9891 11.057 4.9891C10.885 4.9891 10.7387 5.04946 10.6179 5.17018L6.33266 9.45545ZM1.92243 15.0836C1.50149 15.0836 1.14518 14.9378 0.853516 14.6461C0.561849 14.3545 0.416016 13.9981 0.416016 13.5772V2.42341C0.416016 2.00247 0.561849 1.64616 0.853516 1.35449C1.14518 1.06283 1.50149 0.916992 1.92243 0.916992H13.0762C13.4972 0.916992 13.8535 1.06283 14.1451 1.35449C14.4368 1.64616 14.5826 2.00247 14.5826 2.42341V13.5772C14.5826 13.9981 14.4368 14.3545 14.1451 14.6461C13.8535 14.9378 13.4972 15.0836 13.0762 15.0836H1.92243ZM1.92243 13.8336H13.0762C13.1403 13.8336 13.1991 13.8069 13.2525 13.7535C13.306 13.7001 13.3327 13.6413 13.3327 13.5772V2.42341C13.3327 2.3593 13.306 2.30053 13.2525 2.2471C13.1991 2.19368 13.1403 2.16697 13.0762 2.16697H1.92243C1.85832 2.16697 1.79955 2.19368 1.74612 2.2471C1.6927 2.30053 1.66599 2.3593 1.66599 2.42341V13.5772C1.66599 13.6413 1.6927 13.7001 1.74612 13.7535C1.79955 13.8069 1.85832 13.8336 1.92243 13.8336Z" fill="white"/>
</svg>
