<svg width="12" height="12" viewBox="0 0 12 12" fill="none" xmlns="http://www.w3.org/2000/svg">
<path d="M1.06502 11.6412C0.853061 11.6882 0.670583 11.6352 0.517583 11.4823C0.364594 11.3293 0.311605 11.1468 0.358616 10.9348L0.9163 8.25794L3.7419 11.0835L1.06502 11.6412ZM3.7419 11.0835L0.9163 8.25794L8.39578 0.77846C8.62569 0.548549 8.9103 0.433594 9.24962 0.433594C9.58893 0.433594 9.87354 0.548549 10.1034 0.77846L11.2214 1.89639C11.4513 2.1263 11.5662 2.41092 11.5662 2.75023C11.5662 3.08954 11.4513 3.37415 11.2214 3.60406L3.7419 11.0835ZM9.10858 1.48101L2.29192 8.29126L3.70858 9.70792L10.5188 2.89126C10.5573 2.85279 10.5765 2.80472 10.5765 2.74703C10.5765 2.68933 10.5573 2.64124 10.5188 2.60278L9.39707 1.48101C9.3586 1.44254 9.31052 1.42331 9.25282 1.42331C9.19513 1.42331 9.14705 1.44254 9.10858 1.48101Z" fill="#8E8E8E"/>
<path d="M1.06502 11.6412C0.853061 11.6882 0.670583 11.6352 0.517583 11.4823C0.364594 11.3293 0.311605 11.1468 0.358616 10.9348L0.9163 8.25794L3.7419 11.0835L1.06502 11.6412ZM3.7419 11.0835L0.9163 8.25794L8.39578 0.77846C8.62569 0.548549 8.9103 0.433594 9.24962 0.433594C9.58893 0.433594 9.87354 0.548549 10.1034 0.77846L11.2214 1.89639C11.4513 2.1263 11.5662 2.41092 11.5662 2.75023C11.5662 3.08954 11.4513 3.37415 11.2214 3.60406L3.7419 11.0835ZM9.10858 1.48101L2.29192 8.29126L3.70858 9.70792L10.5188 2.89126C10.5573 2.85279 10.5765 2.80472 10.5765 2.74703C10.5765 2.68933 10.5573 2.64124 10.5188 2.60278L9.39707 1.48101C9.3586 1.44254 9.31052 1.42331 9.25282 1.42331C9.19513 1.42331 9.14705 1.44254 9.10858 1.48101Z" fill="black" fill-opacity="0.2"/>
</svg>
