<svg xmlns="http://www.w3.org/2000/svg" width="25" height="24" viewBox="0 0 25 24" fill="none">
  <mask id="mask0_6498_24561" style="mask-type:alpha" maskUnits="userSpaceOnUse" x="0" y="0" width="25" height="24">
    <rect x="0.5" width="24" height="24" fill="#727272"/>
  </mask>
  <g mask="url(#mask0_6498_24561)">
    <path d="M5.80775 20.5C5.30258 20.5 4.875 20.325 4.525 19.975C4.175 19.625 4 19.1974 4 18.6923V5.30775C4 4.80258 4.175 4.375 4.525 4.025C4.875 3.675 5.30258 3.5 5.80775 3.5H19.1923C19.6974 3.5 20.125 3.675 20.475 4.025C20.825 4.375 21 4.80258 21 5.30775V18.6923C21 19.1974 20.825 19.625 20.475 19.975C20.125 20.325 19.6974 20.5 19.1923 20.5H5.80775ZM5.80775 19H19.1923C19.2692 19 19.3398 18.9679 19.4038 18.9038C19.4679 18.8398 19.5 18.7692 19.5 18.6923V5.30775C19.5 5.23075 19.4679 5.16025 19.4038 5.09625C19.3398 5.03208 19.2692 5 19.1923 5H5.80775C5.73075 5 5.66025 5.03208 5.59625 5.09625C5.53208 5.16025 5.5 5.23075 5.5 5.30775V18.6923C5.5 18.7692 5.53208 18.8398 5.59625 18.9038C5.66025 18.9679 5.73075 19 5.80775 19Z" fill="#CACACA"/>
  </g>
</svg>