<svg xmlns="http://www.w3.org/2000/svg" width="25" height="24" viewBox="0 0 25 24" fill="none">
  <mask id="mask0_6498_24681" style="mask-type:alpha" maskUnits="userSpaceOnUse" x="0" y="0" width="25" height="24">
    <rect x="0.5" width="24" height="24" fill="#727272"/>
  </mask>
  <g mask="url(#mask0_6498_24681)">
    <path d="M11.1 13.7463L8.777 11.423C8.6385 11.2847 8.46442 11.2138 8.25475 11.2105C8.04525 11.2073 7.868 11.2782 7.723 11.423C7.57817 11.568 7.50575 11.7437 7.50575 11.95C7.50575 12.1563 7.57817 12.332 7.723 12.477L10.4673 15.2213C10.6481 15.4019 10.859 15.4923 11.1 15.4923C11.341 15.4923 11.5519 15.4019 11.7327 15.2213L14.5145 12.4395L17.2962 9.65775C17.4346 9.51925 17.5054 9.34517 17.5087 9.1355C17.5119 8.926 17.4411 8.74875 17.2962 8.60375C17.1512 8.45892 16.9756 8.3865 16.7693 8.3865C16.5629 8.3865 16.3873 8.45892 16.2423 8.60375L11.1 13.7463ZM5.80775 20.5C5.30258 20.5 4.875 20.325 4.525 19.975C4.175 19.625 4 19.1974 4 18.6923V5.30775C4 4.80258 4.175 4.375 4.525 4.025C4.875 3.675 5.30258 3.5 5.80775 3.5H19.1923C19.6974 3.5 20.125 3.675 20.475 4.025C20.825 4.375 21 4.80258 21 5.30775V18.6923C21 19.1974 20.825 19.625 20.475 19.975C20.125 20.325 19.6974 20.5 19.1923 20.5H5.80775Z" fill="#175C8E"/>
  </g>
</svg>