<svg width="59" height="59" viewBox="0 0 59 59" fill="none" xmlns="http://www.w3.org/2000/svg">
<path d="M7.27937 4L52.6553 49.1942C53.5163 50.0518 54 51.2149 54 52.4277C54 53.6405 53.5163 54.8036 52.6553 55.6612C51.7941 56.5185 50.6264 57 49.4088 57C48.1913 57 47.0235 56.5185 46.1623 55.6612L35.0779 44.431C34.3525 43.6974 33.9456 42.7093 33.9448 41.6796V41.0013C33.9449 40.4814 33.8413 39.9666 33.64 39.4869C33.4388 39.0072 33.1438 38.5722 32.7723 38.2069L31.3412 36.8907C30.8554 36.4442 30.2646 36.1266 29.6232 35.9671C28.9819 35.8077 28.3105 35.8114 27.671 35.9781C26.6625 36.2402 25.6028 36.2351 24.5969 35.9634C23.591 35.6916 22.6739 35.1626 21.9367 34.4288L11.4151 23.9481C5.17333 17.7313 2.87639 8.34364 7.27937 4Z" stroke="#175C8E" stroke-width="3" stroke-linejoin="round"/>
<path d="M47.1784 2L37.6944 11.484C36.9646 12.2136 36.3857 13.0799 35.9907 14.0333C35.5957 14.9867 35.3924 16.0086 35.3924 17.0406V18.8649C35.3925 19.1231 35.3417 19.3787 35.2429 19.6171C35.1441 19.8556 34.9992 20.0722 34.8167 20.2547L33.4281 21.6432M37.3568 25.5719L38.7453 24.1833C38.9278 24.0008 39.1444 23.8559 39.3829 23.7571C39.6213 23.6583 39.8769 23.6075 40.1351 23.6076H41.9594C42.9914 23.6076 44.0133 23.4043 44.9667 23.0093C45.9201 22.6143 46.7864 22.0354 47.516 21.3056L57 11.8216M52.0892 6.91081L42.2676 16.7324M22.6243 43.2508L10.3817 55.5622C9.46079 56.4828 8.21193 57 6.90976 57C5.60759 57 4.35873 56.4828 3.43782 55.5622C2.51718 54.6413 2 53.3924 2 52.0902C2 50.7881 2.51718 49.5392 3.43782 48.6183L13.7849 38.34" stroke="#175C8E" stroke-width="3" stroke-linecap="round" stroke-linejoin="round"/>
</svg>
