<svg width="54" height="54" viewBox="0 0 54 54" fill="none" xmlns="http://www.w3.org/2000/svg">
<path d="M36.4141 32.6796C36.1662 32.4296 35.8713 32.2313 35.5463 32.0959C35.2213 31.9605 34.8728 31.8908 34.5208 31.8908C34.1687 31.8908 33.8202 31.9605 33.4952 32.0959C33.1703 32.2313 32.8753 32.4296 32.6274 32.6796C32.1308 33.1792 31.852 33.8551 31.852 34.5596C31.852 35.2641 32.1308 35.9399 32.6274 36.4396L49.1074 52.9196C49.3553 53.1695 49.6503 53.3679 49.9752 53.5033C50.3002 53.6387 50.6487 53.7084 51.0008 53.7084C51.3528 53.7084 51.7013 53.6387 52.0263 53.5033C52.3513 53.3679 52.6462 53.1695 52.8941 52.9196C53.3908 52.4199 53.6696 51.7441 53.6696 51.0396C53.6696 50.3351 53.3908 49.6592 52.8941 49.1596L36.4141 32.6796ZM39.6941 26.0396C41.8151 26.0377 43.8486 25.1936 45.3474 23.6929L52.8941 16.1462C53.3908 15.6466 53.6696 14.9707 53.6696 14.2662C53.6696 13.5617 53.3908 12.8859 52.8941 12.3862C52.6462 12.1363 52.3513 11.9379 52.0263 11.8025C51.7013 11.6672 51.3528 11.5974 51.0008 11.5974C50.6487 11.5974 50.3002 11.6672 49.9752 11.8025C49.6503 11.9379 49.3553 12.1363 49.1074 12.3862L41.5608 19.9329C41.0611 20.4296 40.3853 20.7084 39.6808 20.7084C38.9763 20.7084 38.3004 20.4296 37.8008 19.9329L47.2408 10.4929C47.7374 9.99328 48.0162 9.31741 48.0162 8.61291C48.0162 7.90842 47.7374 7.23254 47.2408 6.73291C46.9929 6.48297 46.6979 6.28458 46.373 6.1492C46.048 6.01382 45.6995 5.94412 45.3474 5.94412C44.9954 5.94412 44.6469 6.01382 44.3219 6.1492C43.9969 6.28458 43.702 6.48297 43.4541 6.73291L34.0408 16.1462C33.5441 15.6466 33.2653 14.9707 33.2653 14.2662C33.2653 13.5617 33.5441 12.8859 34.0408 12.3862L41.5608 4.83958C41.8399 4.60052 42.0666 4.30634 42.2267 3.9755C42.3868 3.64466 42.4767 3.2843 42.4909 2.91705C42.5051 2.5498 42.4432 2.18358 42.3091 1.84138C42.1751 1.49918 41.9717 1.18839 41.7118 0.928509C41.452 0.66863 41.1412 0.465276 40.799 0.33121C40.4568 0.197145 40.0905 0.135263 39.7233 0.149448C39.356 0.163633 38.9957 0.25358 38.6648 0.413642C38.334 0.573704 38.0398 0.800426 37.8008 1.07958L30.2541 8.62624C28.756 10.1262 27.9145 12.1596 27.9145 14.2796C27.9145 16.3996 28.756 18.4329 30.2541 19.9329V19.9329L27.0008 23.2396L22.8408 19.1329C24.0214 17.0021 24.4679 14.542 24.1113 12.1322C23.7546 9.72241 22.6147 7.49703 20.8674 5.79958C17.0274 1.95958 7.08077 -2.33376 2.38743 2.43958C-2.3059 7.21291 1.9341 17.0529 5.66743 20.9196C7.75231 23.0119 10.5554 24.2323 13.5074 24.3329H13.8808C15.6838 24.3073 17.4487 23.8109 19.0008 22.8929L23.1874 26.9996L1.10743 49.0796C0.860547 49.3282 0.665052 49.623 0.532109 49.9472C0.399166 50.2714 0.331378 50.6186 0.332616 50.969C0.333854 51.3194 0.404094 51.6661 0.539325 51.9893C0.674555 52.3126 0.87213 52.606 1.12077 52.8529C1.3694 53.0998 1.66423 53.2953 1.98842 53.4282C2.31261 53.5612 2.65981 53.629 3.01019 53.6277C3.36058 53.6265 3.70729 53.5563 4.03053 53.421C4.35377 53.2858 4.64721 53.0882 4.8941 52.8396L28.8941 28.8396L34.0141 23.7196C34.7616 24.461 35.6481 25.0476 36.6228 25.4457C37.5975 25.8439 38.6412 26.0457 39.6941 26.0396V26.0396ZM17.4808 17.5062C16.9812 18.0029 16.385 18.3917 15.729 18.6485C15.0731 18.9054 14.3714 19.0249 13.6674 18.9996C12.1085 18.9324 10.6364 18.2633 9.56077 17.1329C6.68077 14.2529 4.6541 7.71958 6.1741 6.19958C6.67897 5.81873 7.30275 5.6297 7.9341 5.66624C11.3376 5.93752 14.559 7.31412 17.1074 9.58624C18.1962 10.5935 18.8454 11.9883 18.9153 13.4698C18.9851 14.9514 18.4699 16.401 17.4808 17.5062V17.5062Z" fill="white"/>
</svg>
