<svg width="64" height="64" viewBox="0 0 64 64" fill="none" xmlns="http://www.w3.org/2000/svg">
<path d="M41.4141 37.6796C41.1662 37.4296 40.8713 37.2313 40.5463 37.0959C40.2213 36.9605 39.8728 36.8908 39.5208 36.8908C39.1687 36.8908 38.8202 36.9605 38.4952 37.0959C38.1703 37.2313 37.8753 37.4296 37.6274 37.6796C37.1308 38.1792 36.852 38.8551 36.852 39.5596C36.852 40.2641 37.1308 40.9399 37.6274 41.4396L54.1074 57.9196C54.3553 58.1695 54.6503 58.3679 54.9752 58.5033C55.3002 58.6387 55.6487 58.7084 56.0008 58.7084C56.3528 58.7084 56.7014 58.6387 57.0263 58.5033C57.3513 58.3679 57.6462 58.1695 57.8941 57.9196C58.3908 57.4199 58.6696 56.7441 58.6696 56.0396C58.6696 55.3351 58.3908 54.6592 57.8941 54.1596L41.4141 37.6796ZM44.6941 31.0396C46.8151 31.0377 48.8486 30.1936 50.3474 28.6929L57.8941 21.1462C58.3908 20.6466 58.6696 19.9707 58.6696 19.2662C58.6696 18.5617 58.3908 17.8859 57.8941 17.3862C57.6462 17.1363 57.3513 16.9379 57.0263 16.8025C56.7014 16.6672 56.3528 16.5974 56.0008 16.5974C55.6487 16.5974 55.3002 16.6672 54.9752 16.8025C54.6503 16.9379 54.3553 17.1363 54.1074 17.3862L46.5608 24.9329C46.0611 25.4296 45.3853 25.7084 44.6808 25.7084C43.9763 25.7084 43.3004 25.4296 42.8008 24.9329L52.2408 15.4929C52.7374 14.9933 53.0162 14.3174 53.0162 13.6129C53.0162 12.9084 52.7374 12.2325 52.2408 11.7329C51.9929 11.483 51.6979 11.2846 51.373 11.1492C51.048 11.0138 50.6995 10.9441 50.3474 10.9441C49.9954 10.9441 49.6469 11.0138 49.3219 11.1492C48.9969 11.2846 48.702 11.483 48.4541 11.7329L39.0408 21.1462C38.5441 20.6466 38.2653 19.9707 38.2653 19.2662C38.2653 18.5617 38.5441 17.8859 39.0408 17.3862L46.5608 9.83958C46.8399 9.60052 47.0666 9.30634 47.2267 8.9755C47.3868 8.64466 47.4767 8.2843 47.4909 7.91705C47.5051 7.5498 47.4432 7.18358 47.3091 6.84138C47.1751 6.49918 46.9717 6.18839 46.7118 5.92851C46.452 5.66863 46.1412 5.46528 45.799 5.33121C45.4568 5.19714 45.0905 5.13526 44.7233 5.14945C44.356 5.16363 43.9957 5.25358 43.6648 5.41364C43.334 5.5737 43.0398 5.80043 42.8008 6.07958L35.2541 13.6262C33.756 15.1262 32.9145 17.1596 32.9145 19.2796C32.9145 21.3996 33.756 23.4329 35.2541 24.9329L32.0008 28.2396L27.8408 24.1329C29.0214 22.0021 29.4679 19.542 29.1113 17.1322C28.7546 14.7224 27.6147 12.497 25.8674 10.7996C22.0274 6.95958 12.0808 2.66624 7.38743 7.43958C2.6941 12.2129 6.9341 22.0529 10.6674 25.9196C12.7523 28.0119 15.5554 29.2323 18.5074 29.3329H18.8808C20.6838 29.3073 22.4487 28.8109 24.0008 27.8929L28.1874 31.9996L6.10743 54.0796C5.86055 54.3282 5.66505 54.623 5.53211 54.9472C5.39917 55.2714 5.33138 55.6186 5.33262 55.969C5.33385 56.3194 5.40409 56.6661 5.53932 56.9893C5.67456 57.3126 5.87213 57.606 6.12077 57.8529C6.3694 58.0998 6.66423 58.2953 6.98842 58.4282C7.31261 58.5612 7.65981 58.629 8.01019 58.6277C8.36058 58.6265 8.70729 58.5563 9.03053 58.421C9.35377 58.2858 9.64721 58.0882 9.8941 57.8396L33.8941 33.8396L39.0141 28.7196C39.7616 29.461 40.6481 30.0476 41.6228 30.4457C42.5975 30.8439 43.6412 31.0457 44.6941 31.0396ZM22.4808 22.5062C21.9812 23.0029 21.385 23.3917 20.729 23.6485C20.0731 23.9054 19.3714 24.0249 18.6674 23.9996C17.1085 23.9324 15.6364 23.2633 14.5608 22.1329C11.6808 19.2529 9.6541 12.7196 11.1741 11.1996C11.679 10.8187 12.3028 10.6297 12.9341 10.6662C16.3376 10.9375 19.559 12.3141 22.1074 14.5862C23.1962 15.5935 23.8454 16.9883 23.9153 18.4698C23.9851 19.9514 23.4699 21.401 22.4808 22.5062Z" fill="#858585"/>
</svg>
