<svg xmlns="http://www.w3.org/2000/svg" width="18" height="18" viewBox="0 0 18 18" fill="none">
  <mask id="mask0_1952_6587" style="mask-type:alpha" maskUnits="userSpaceOnUse" x="0" y="0" width="18" height="18">
    <rect width="18" height="18" fill="#D9D9D9"/>
  </mask>
  <g mask="url(#mask0_1952_6587)">
    <path d="M5.48077 15.3748C5.10794 15.3748 4.78877 15.2421 4.52327 14.9766C4.25776 14.7111 4.125 14.3919 4.125 14.0191V4.49986H3.9375C3.77812 4.49986 3.64453 4.44593 3.53672 4.33806C3.42891 4.23021 3.375 4.09656 3.375 3.93711C3.375 3.77768 3.42891 3.64411 3.53672 3.53643C3.64453 3.42873 3.77812 3.37488 3.9375 3.37488H6.74998C6.74998 3.19123 6.81464 3.03474 6.94397 2.90541C7.07329 2.77609 7.22978 2.71143 7.41343 2.71143H10.5865C10.7702 2.71143 10.9267 2.77609 11.056 2.90541C11.1853 3.03474 11.25 3.19123 11.25 3.37488H14.0625C14.2218 3.37488 14.3554 3.42881 14.4632 3.53667C14.5711 3.64453 14.625 3.77818 14.625 3.93762C14.625 4.09707 14.5711 4.23064 14.4632 4.33833C14.3554 4.44601 14.2218 4.49986 14.0625 4.49986H13.875V14.0191C13.875 14.3919 13.7422 14.7111 13.4767 14.9766C13.2112 15.2421 12.892 15.3748 12.5192 15.3748H5.48077ZM12.75 4.49986H5.24998V14.0191C5.24998 14.0864 5.27162 14.1417 5.31489 14.1849C5.35817 14.2282 5.41346 14.2499 5.48077 14.2499H12.5192C12.5865 14.2499 12.6418 14.2282 12.6851 14.1849C12.7283 14.1417 12.75 14.0864 12.75 14.0191V4.49986ZM7.61563 12.7499C7.77507 12.7499 7.90863 12.696 8.01632 12.5881C8.12402 12.4803 8.17787 12.3467 8.17787 12.1874V6.56234C8.17787 6.40298 8.12394 6.26939 8.01608 6.16158C7.90821 6.05376 7.77456 5.99986 7.61512 5.99986C7.45567 5.99986 7.32211 6.05376 7.21442 6.16158C7.10673 6.26939 7.05289 6.40298 7.05289 6.56234V12.1874C7.05289 12.3467 7.10682 12.4803 7.21468 12.5881C7.32253 12.696 7.45618 12.7499 7.61563 12.7499ZM10.3848 12.7499C10.5443 12.7499 10.6779 12.696 10.7855 12.5881C10.8932 12.4803 10.9471 12.3467 10.9471 12.1874V6.56234C10.9471 6.40298 10.8931 6.26939 10.7853 6.16158C10.6774 6.05376 10.5438 5.99986 10.3843 5.99986C10.2249 5.99986 10.0913 6.05376 9.98364 6.16158C9.87594 6.26939 9.82209 6.40298 9.82209 6.56234V12.1874C9.82209 12.3467 9.87602 12.4803 9.98389 12.5881C10.0917 12.696 10.2254 12.7499 10.3848 12.7499Z" fill="#8E8E8E"/>
    <path d="M5.48077 15.3748C5.10794 15.3748 4.78877 15.2421 4.52327 14.9766C4.25776 14.7111 4.125 14.3919 4.125 14.0191V4.49986H3.9375C3.77812 4.49986 3.64453 4.44593 3.53672 4.33806C3.42891 4.23021 3.375 4.09656 3.375 3.93711C3.375 3.77768 3.42891 3.64411 3.53672 3.53643C3.64453 3.42873 3.77812 3.37488 3.9375 3.37488H6.74998C6.74998 3.19123 6.81464 3.03474 6.94397 2.90541C7.07329 2.77609 7.22978 2.71143 7.41343 2.71143H10.5865C10.7702 2.71143 10.9267 2.77609 11.056 2.90541C11.1853 3.03474 11.25 3.19123 11.25 3.37488H14.0625C14.2218 3.37488 14.3554 3.42881 14.4632 3.53667C14.5711 3.64453 14.625 3.77818 14.625 3.93762C14.625 4.09707 14.5711 4.23064 14.4632 4.33833C14.3554 4.44601 14.2218 4.49986 14.0625 4.49986H13.875V14.0191C13.875 14.3919 13.7422 14.7111 13.4767 14.9766C13.2112 15.2421 12.892 15.3748 12.5192 15.3748H5.48077ZM12.75 4.49986H5.24998V14.0191C5.24998 14.0864 5.27162 14.1417 5.31489 14.1849C5.35817 14.2282 5.41346 14.2499 5.48077 14.2499H12.5192C12.5865 14.2499 12.6418 14.2282 12.6851 14.1849C12.7283 14.1417 12.75 14.0864 12.75 14.0191V4.49986ZM7.61563 12.7499C7.77507 12.7499 7.90863 12.696 8.01632 12.5881C8.12402 12.4803 8.17787 12.3467 8.17787 12.1874V6.56234C8.17787 6.40298 8.12394 6.26939 8.01608 6.16158C7.90821 6.05376 7.77456 5.99986 7.61512 5.99986C7.45567 5.99986 7.32211 6.05376 7.21442 6.16158C7.10673 6.26939 7.05289 6.40298 7.05289 6.56234V12.1874C7.05289 12.3467 7.10682 12.4803 7.21468 12.5881C7.32253 12.696 7.45618 12.7499 7.61563 12.7499ZM10.3848 12.7499C10.5443 12.7499 10.6779 12.696 10.7855 12.5881C10.8932 12.4803 10.9471 12.3467 10.9471 12.1874V6.56234C10.9471 6.40298 10.8931 6.26939 10.7853 6.16158C10.6774 6.05376 10.5438 5.99986 10.3843 5.99986C10.2249 5.99986 10.0913 6.05376 9.98364 6.16158C9.87594 6.26939 9.82209 6.40298 9.82209 6.56234V12.1874C9.82209 12.3467 9.87602 12.4803 9.98389 12.5881C10.0917 12.696 10.2254 12.7499 10.3848 12.7499Z" fill="black" fill-opacity="0.2"/>
  </g>
</svg>