<svg xmlns="http://www.w3.org/2000/svg" width="18" height="18" viewBox="0 0 18 18" fill="none">
  <mask id="mask0_2094_15969" style="mask-type:alpha" maskUnits="userSpaceOnUse" x="0" y="0" width="18" height="18">
    <rect width="18" height="18" fill="#D9D9D9"/>
  </mask>
  <g mask="url(#mask0_2094_15969)">
    <path d="M3.44811 15.3464C3.20966 15.3993 3.00438 15.3397 2.83225 15.1675C2.66014 14.9954 2.60053 14.7901 2.65341 14.5517L3.28081 11.5402L6.45961 14.719L3.44811 15.3464ZM6.45961 14.719L3.28081 11.5402L11.6952 3.12577C11.9539 2.86712 12.2741 2.73779 12.6558 2.73779C13.0375 2.73779 13.3577 2.86712 13.6163 3.12577L14.874 4.38344C15.1327 4.64209 15.262 4.96228 15.262 5.344C15.262 5.72573 15.1327 6.04592 14.874 6.30457L6.45961 14.719ZM12.4971 3.91614L4.82838 11.5777L6.42213 13.1714L14.0837 5.50267C14.1269 5.45939 14.1486 5.4053 14.1486 5.3404C14.1486 5.27549 14.1269 5.2214 14.0837 5.17812L12.8217 3.91614C12.7784 3.87286 12.7243 3.85122 12.6594 3.85122C12.5945 3.85122 12.5404 3.87286 12.4971 3.91614Z" fill="#4B4B4B"/>
  </g>
</svg>