<svg width="16" height="16" viewBox="0 0 16 16" fill="none" xmlns="http://www.w3.org/2000/svg">
<path d="M0 8C0 7.28201 0.0880044 6.58643 0.252813 5.92156C0.694807 5.94567 1.13462 5.8425 1.52363 5.62346C1.91264 5.40443 2.2357 5.07806 2.45709 4.68043C2.67848 4.2828 2.78958 3.8294 2.77812 3.37034C2.76665 2.91129 2.63306 2.46447 2.39212 2.07927C3.35932 1.09198 4.55286 0.376423 5.86029 0C6.06109 0.409606 6.36723 0.753573 6.7448 0.993825C7.12238 1.23408 7.55667 1.36124 7.9996 1.36124C8.44253 1.36124 8.87682 1.23408 9.2544 0.993825C9.63197 0.753573 9.93811 0.409606 10.1389 0C11.4463 0.376423 12.6399 1.09198 13.6071 2.07927C13.3659 2.46454 13.2321 2.91153 13.2205 3.37079C13.209 3.83006 13.3201 4.28368 13.5416 4.68148C13.7631 5.07928 14.0864 5.40574 14.4757 5.62475C14.8649 5.84375 15.305 5.94677 15.7472 5.92239C15.912 6.58643 16 7.28201 16 8C16 8.71799 15.912 9.41357 15.7472 10.0784C15.3051 10.0542 14.8652 10.1572 14.4761 10.3762C14.0869 10.5952 13.7638 10.9215 13.5423 11.3192C13.3208 11.7168 13.2096 12.1703 13.221 12.6294C13.2325 13.0886 13.3661 13.5355 13.6071 13.9207C12.6399 14.908 11.4463 15.6236 10.1389 16C9.93811 15.5904 9.63197 15.2464 9.2544 15.0062C8.87682 14.7659 8.44253 14.6388 7.9996 14.6388C7.55667 14.6388 7.12238 14.7659 6.7448 15.0062C6.36723 15.2464 6.06109 15.5904 5.86029 16C4.55286 15.6236 3.35932 14.908 2.39212 13.9207C2.63334 13.5355 2.76712 13.0885 2.77867 12.6292C2.79023 12.1699 2.67909 11.7163 2.45757 11.3185C2.23605 10.9207 1.91278 10.5943 1.52352 10.3753C1.13426 10.1562 0.694198 10.0532 0.252013 10.0776C0.0880044 9.4144 0 8.71882 0 8ZM3.84339 10.4901C4.34742 11.3957 4.49142 12.4374 4.29461 13.4152C4.62103 13.6559 4.96825 13.8643 5.33227 14.0378C6.06564 13.3562 7.0158 12.9796 8.0004 12.9803C9.00845 12.9803 9.9509 13.3712 10.6685 14.0378C11.0326 13.8643 11.3798 13.6559 11.7062 13.4152C11.5041 12.4158 11.6648 11.3742 12.1574 10.4901C12.6491 9.60562 13.4383 8.94057 14.3735 8.62254C14.4105 8.2084 14.4105 7.7916 14.3735 7.37746C13.438 7.05961 12.6485 6.39454 12.1566 5.50986C11.664 4.6258 11.5033 3.58418 11.7054 2.58477C11.3791 2.34399 11.0316 2.13556 10.6677 1.96223C9.93457 2.64365 8.98472 3.02022 8.0004 3.01971C7.0158 3.02042 6.06564 2.64384 5.33227 1.96223C4.96835 2.13557 4.62094 2.34399 4.29461 2.58477C4.49668 3.58418 4.336 4.6258 3.84339 5.50986C3.35166 6.39438 2.56251 7.05943 1.62728 7.37746C1.59028 7.7916 1.59028 8.2084 1.62728 8.62254C2.56281 8.94039 3.35227 9.60546 3.84419 10.4901H3.84339ZM8.0004 10.4901C7.36385 10.4901 6.75337 10.2278 6.30326 9.7608C5.85315 9.2938 5.60028 8.66043 5.60028 8C5.60028 7.33957 5.85315 6.70619 6.30326 6.2392C6.75337 5.77221 7.36385 5.50986 8.0004 5.50986C8.63695 5.50986 9.24743 5.77221 9.69754 6.2392C10.1477 6.70619 10.4005 7.33957 10.4005 8C10.4005 8.66043 10.1477 9.2938 9.69754 9.7608C9.24743 10.2278 8.63695 10.4901 8.0004 10.4901ZM8.0004 8.83005C8.21258 8.83005 8.41608 8.7426 8.56611 8.58693C8.71615 8.43127 8.80044 8.22014 8.80044 8C8.80044 7.77986 8.71615 7.56873 8.56611 7.41307C8.41608 7.2574 8.21258 7.16995 8.0004 7.16995C7.78822 7.16995 7.58472 7.2574 7.43469 7.41307C7.28465 7.56873 7.20036 7.77986 7.20036 8C7.20036 8.22014 7.28465 8.43127 7.43469 8.58693C7.58472 8.7426 7.78822 8.83005 8.0004 8.83005V8.83005Z" fill="#A1A1A1"/>
</svg>
