<svg width="10" height="9" viewBox="0 0 10 9" fill="none" xmlns="http://www.w3.org/2000/svg">
<path d="M4.52571 0.802746C4.67878 0.34931 5.32011 0.349308 5.47318 0.802745L6.16758 2.85974C6.23619 3.06299 6.4268 3.19982 6.64131 3.19982H8.84656C9.33554 3.19982 9.53382 3.82935 9.1331 4.10957L7.38231 5.3339C7.20033 5.46115 7.12408 5.69318 7.19511 5.90357L7.87154 7.90735C8.02592 8.36466 7.50682 8.75363 7.11127 8.47702L5.28598 7.2006C5.1139 7.08027 4.88498 7.08027 4.7129 7.2006L2.88762 8.47702C2.49207 8.75363 1.97296 8.36466 2.12734 7.90735L2.80378 5.90357C2.8748 5.69318 2.79855 5.46115 2.61658 5.3339L0.865785 4.10957C0.465067 3.82935 0.663345 3.19982 1.15232 3.19982H3.35757C3.57209 3.19982 3.7627 3.06299 3.83131 2.85974L4.52571 0.802746Z" fill="white"/>
</svg>
