<svg width="29" height="29" viewBox="0 0 29 29" fill="none" xmlns="http://www.w3.org/2000/svg">
<path d="M14.5002 18.1819C16.5336 18.1819 18.182 16.5335 18.182 14.5001C18.182 12.4666 16.5336 10.8182 14.5002 10.8182C12.4668 10.8182 10.8184 12.4666 10.8184 14.5001C10.8184 16.5335 12.4668 18.1819 14.5002 18.1819Z" stroke="#23BEED" stroke-linecap="round" stroke-linejoin="round"/>
<path d="M23.5818 18.1818C23.4184 18.552 23.3697 18.9626 23.4419 19.3607C23.5141 19.7588 23.7039 20.1262 23.9868 20.4155L24.0605 20.4891C24.2887 20.7171 24.4697 20.9878 24.5932 21.2857C24.7168 21.5837 24.7803 21.9031 24.7803 22.2257C24.7803 22.5482 24.7168 22.8676 24.5932 23.1656C24.4697 23.4636 24.2887 23.7343 24.0605 23.9623C23.8325 24.1905 23.5618 24.3715 23.2638 24.4951C22.9658 24.6186 22.6464 24.6822 22.3239 24.6822C22.0013 24.6822 21.6819 24.6186 21.3839 24.4951C21.0859 24.3715 20.8152 24.1905 20.5873 23.9623L20.5136 23.8886C20.2244 23.6057 19.857 23.4159 19.4589 23.3437C19.0608 23.2715 18.6502 23.3203 18.28 23.4836C17.917 23.6392 17.6074 23.8975 17.3894 24.2268C17.1713 24.5561 17.0543 24.9419 17.0527 25.3368V25.5455C17.0527 26.1964 16.7941 26.8208 16.3338 27.2811C15.8735 27.7414 15.2492 28 14.5982 28C13.9472 28 13.3229 27.7414 12.8626 27.2811C12.4022 26.8208 12.1436 26.1964 12.1436 25.5455V25.435C12.1341 25.0288 12.0026 24.6348 11.7663 24.3043C11.5299 23.9738 11.1995 23.7221 10.8182 23.5818C10.448 23.4184 10.0374 23.3697 9.63928 23.4419C9.24116 23.5141 8.87379 23.7039 8.58455 23.9868L8.51091 24.0605C8.28295 24.2887 8.01224 24.4697 7.71426 24.5932C7.41629 24.7168 7.09688 24.7803 6.77432 24.7803C6.45175 24.7803 6.13235 24.7168 5.83437 24.5932C5.5364 24.4697 5.26569 24.2887 5.03773 24.0605C4.80951 23.8325 4.62847 23.5618 4.50494 23.2638C4.38142 22.9658 4.31784 22.6464 4.31784 22.3239C4.31784 22.0013 4.38142 21.6819 4.50494 21.3839C4.62847 21.0859 4.80951 20.8152 5.03773 20.5873L5.11136 20.5136C5.3943 20.2244 5.58409 19.857 5.65628 19.4589C5.72847 19.0608 5.67973 18.6502 5.51636 18.28C5.36079 17.917 5.10247 17.6074 4.77321 17.3894C4.44394 17.1713 4.0581 17.0543 3.66318 17.0527H3.45455C2.80356 17.0527 2.17924 16.7941 1.71892 16.3338C1.2586 15.8735 1 15.2492 1 14.5982C1 13.9472 1.2586 13.3229 1.71892 12.8626C2.17924 12.4022 2.80356 12.1436 3.45455 12.1436H3.565C3.97122 12.1341 4.36519 12.0026 4.69569 11.7663C5.02618 11.5299 5.27792 11.1995 5.41818 10.8182C5.58155 10.448 5.63028 10.0374 5.5581 9.63928C5.48591 9.24116 5.29611 8.87379 5.01318 8.58455L4.93955 8.51091C4.71133 8.28295 4.53029 8.01224 4.40676 7.71426C4.28324 7.41629 4.21966 7.09688 4.21966 6.77432C4.21966 6.45175 4.28324 6.13235 4.40676 5.83437C4.53029 5.5364 4.71133 5.26569 4.93955 5.03773C5.16751 4.80951 5.43821 4.62847 5.73619 4.50494C6.03417 4.38142 6.35357 4.31784 6.67614 4.31784C6.9987 4.31784 7.3181 4.38142 7.61608 4.50494C7.91406 4.62847 8.18477 4.80951 8.41273 5.03773L8.48636 5.11136C8.77561 5.3943 9.14297 5.58409 9.5411 5.65628C9.93922 5.72847 10.3498 5.67973 10.72 5.51636H10.8182C11.1812 5.36079 11.4907 5.10247 11.7088 4.77321C11.9269 4.44394 12.0439 4.0581 12.0455 3.66318V3.45455C12.0455 2.80356 12.3041 2.17924 12.7644 1.71892C13.2247 1.2586 13.849 1 14.5 1C15.151 1 15.7753 1.2586 16.2356 1.71892C16.6959 2.17924 16.9545 2.80356 16.9545 3.45455V3.565C16.9561 3.95992 17.0731 4.34576 17.2912 4.67503C17.5093 5.00429 17.8188 5.26261 18.1818 5.41818C18.552 5.58155 18.9626 5.63028 19.3607 5.5581C19.7588 5.48591 20.1262 5.29611 20.4155 5.01318L20.4891 4.93955C20.7171 4.71133 20.9878 4.53029 21.2857 4.40676C21.5837 4.28324 21.9031 4.21966 22.2257 4.21966C22.5482 4.21966 22.8676 4.28324 23.1656 4.40676C23.4636 4.53029 23.7343 4.71133 23.9623 4.93955C24.1905 5.16751 24.3715 5.43821 24.4951 5.73619C24.6186 6.03417 24.6822 6.35357 24.6822 6.67614C24.6822 6.9987 24.6186 7.3181 24.4951 7.61608C24.3715 7.91406 24.1905 8.18477 23.9623 8.41273L23.8886 8.48636C23.6057 8.77561 23.4159 9.14297 23.3437 9.5411C23.2715 9.93922 23.3203 10.3498 23.4836 10.72V10.8182C23.6392 11.1812 23.8975 11.4907 24.2268 11.7088C24.5561 11.9269 24.9419 12.0439 25.3368 12.0455H25.5455C26.1964 12.0455 26.8208 12.3041 27.2811 12.7644C27.7414 13.2247 28 13.849 28 14.5C28 15.151 27.7414 15.7753 27.2811 16.2356C26.8208 16.6959 26.1964 16.9545 25.5455 16.9545H25.435C25.0401 16.9561 24.6542 17.0731 24.325 17.2912C23.9957 17.5093 23.7374 17.8188 23.5818 18.1818V18.1818Z" stroke="#23BEED" stroke-linecap="round" stroke-linejoin="round"/>
</svg>
