<svg width="27" height="27" viewBox="0 0 27 27" fill="none" xmlns="http://www.w3.org/2000/svg">
<path d="M23.9717 14.4V22.4403C23.9688 22.998 23.7452 23.5318 23.3498 23.9251C22.9545 24.3184 22.4195 24.5392 21.8618 24.5392H5.46113C4.90347 24.5392 4.36848 24.3184 3.97313 23.9251C3.57779 23.5318 3.35444 22.998 3.35156 22.4403V14.4" stroke="#4DB297" stroke-miterlimit="10" stroke-linecap="round"/>
<path d="M1.435 11.9652C1.41745 12.2906 1.46891 12.6159 1.58574 12.9201C1.70257 13.2242 1.88237 13.5003 2.11321 13.7302C2.34405 13.9601 2.62074 14.1388 2.92535 14.2544C3.22996 14.37 3.5556 14.42 3.88087 14.4012C3.89508 13.7621 4.15873 13.1541 4.61572 12.7071C5.07271 12.2602 5.68664 12.0099 6.32586 12.0099C6.96507 12.0099 7.579 12.2602 8.03599 12.7071C8.49298 13.1541 8.75664 13.7621 8.77084 14.4012C8.77084 13.7526 9.02846 13.1305 9.48711 12.6719C9.94576 12.2132 10.5681 11.9555 11.2167 11.9555C11.8653 11.9555 12.4874 12.2132 12.946 12.6719C13.4047 13.1305 13.6623 13.7526 13.6623 14.4012C13.6623 13.7526 13.9199 13.1305 14.3786 12.6719C14.8372 12.2132 15.4592 11.9556 16.1079 11.9556C16.7565 11.9556 17.3785 12.2132 17.8372 12.6719C18.2958 13.1305 18.5535 13.7526 18.5535 14.4012C18.5535 13.7526 18.8114 13.1305 19.27 12.6719C19.7287 12.2132 20.3507 11.9555 20.9993 11.9555C21.648 11.9555 22.27 12.2132 22.7286 12.6719C23.1873 13.1305 23.4449 13.7526 23.4449 14.4012C23.7702 14.42 24.0958 14.37 24.4004 14.2544C24.705 14.1388 24.9817 13.9601 25.2126 13.7302C25.4434 13.5003 25.6232 13.2242 25.74 12.9201C25.8569 12.6159 25.908 12.2906 25.8905 11.9652C25.592 10.2615 24.1229 7.06058 23.8668 5.34958C23.844 4.97529 23.6844 4.62235 23.4187 4.35775C23.1529 4.09315 22.7995 3.93527 22.4251 3.91406H4.90424C4.52985 3.93527 4.17638 4.09315 3.91066 4.35775C3.64495 4.62235 3.48533 4.97529 3.46255 5.34958C3.20276 7.05938 1.73225 10.2615 1.435 11.9652Z" stroke="#4DB297" stroke-linejoin="round"/>
<path d="M10.9658 24.5395V19.7195C10.9658 19.0047 11.2498 18.3191 11.7552 17.8137C12.2607 17.3082 12.9462 17.0243 13.661 17.0243C14.3758 17.0243 15.0615 17.3082 15.567 17.8137C16.0724 18.3191 16.3564 19.0047 16.3564 19.7195V24.5395" stroke="#4DB297" stroke-miterlimit="10" stroke-linecap="round"/>
<path d="M14.6084 20.5748V22.1686" stroke="#4DB297" stroke-miterlimit="10" stroke-linecap="round"/>
</svg>
